<svg width="14" height="14" viewBox="0 0 14 14" fill="none" xmlns="http://www.w3.org/2000/svg">
<path fill-rule="evenodd" clip-rule="evenodd" d="M7 0.4375C10.6249 0.4375 13.5625 3.37508 13.5625 7C13.5625 10.6249 10.6249 13.5625 7 13.5625C3.37508 13.5625 0.4375 10.6086 0.4375 6.99182C0.4375 3.37508 3.37508 0.4375 7 0.4375ZM8.84147 2.02981C8.75146 1.96435 8.6369 1.96435 8.56326 2.02981L7.18039 3.02809C7.09856 3.09356 6.984 3.09356 6.90218 3.03628L5.30656 2.02981C5.21655 1.98071 5.10199 1.98071 5.02835 2.03799L3.28544 3.33085C3.20361 3.39631 3.17088 3.48632 3.18725 3.57633L3.50637 5.1965C3.52274 5.29469 3.49001 5.39289 3.40818 5.45016L1.95166 6.48118C1.86165 6.54664 1.82892 6.64483 1.85347 6.74303L2.56536 9.60696C2.58991 9.72152 2.69629 9.79516 2.81084 9.79516H4.66013C4.7665 9.79516 4.86469 9.8688 4.89742 9.95881L5.54385 11.8572C5.57659 11.9636 5.67478 12.0208 5.78115 12.0208H8.29323C8.40779 12.0208 8.50598 11.939 8.53053 11.8326L9.02967 9.967C9.05422 9.86062 9.15241 9.7788 9.26697 9.7788H11.2799C11.3945 9.7788 11.5008 9.69697 11.5254 9.58241L12.1718 6.71848C12.1882 6.62029 12.1554 6.52209 12.0736 6.46482L10.6417 5.44198C10.5598 5.39289 10.5271 5.28651 10.5435 5.18832L10.8708 3.57633C10.8871 3.47814 10.8544 3.37177 10.7644 3.32267L8.84147 2.02981ZM9.11224 6.29419L7.03384 4.7804L4.95544 6.29419L5.74916 8.73262H8.31852L9.11224 6.29419Z" fill="#46494C"/>
</svg>
