<svg width="14" height="14" viewBox="0 0 14 14" fill="none" xmlns="http://www.w3.org/2000/svg">
<path fill-rule="evenodd" clip-rule="evenodd" d="M7 0.4375C10.6249 0.4375 13.5625 3.37508 13.5625 7C13.5625 10.6249 10.6249 13.5625 7 13.5625C3.37508 13.5625 0.4375 10.6086 0.4375 6.99182C0.4375 3.37508 3.37508 0.4375 7 0.4375ZM8.8425 2.03029C8.75249 1.96483 8.63793 1.96483 8.56429 2.03029L7.18142 3.02857C7.09959 3.09404 6.98503 3.09404 6.90321 3.03676L5.30759 2.03029C5.21758 1.98119 5.10302 1.98119 5.02938 2.03847L3.28647 3.33133C3.20464 3.3968 3.17191 3.4868 3.18828 3.57681L3.5074 5.19698C3.52377 5.29517 3.49103 5.39337 3.40921 5.45064L1.95269 6.48166C1.86268 6.54712 1.82995 6.64531 1.8545 6.74351L2.56639 9.60744C2.59094 9.722 2.69732 9.79564 2.81187 9.79564H4.66116C4.76753 9.79564 4.86572 9.86929 4.89845 9.9593L5.54488 11.8577C5.57762 11.964 5.67581 12.0213 5.78218 12.0213H8.29426C8.40882 12.0213 8.50701 11.9395 8.53156 11.8331L9.0307 9.96748C9.05525 9.8611 9.15344 9.77928 9.268 9.77928H11.2809C11.3955 9.77928 11.5019 9.69745 11.5264 9.58289L12.1728 6.71896C12.1892 6.62077 12.1565 6.52257 12.0747 6.4653L10.6427 5.44246C10.5609 5.39337 10.5281 5.28699 10.5445 5.1888L10.8718 3.57681C10.8882 3.47862 10.8554 3.37225 10.7654 3.32315L8.8425 2.03029ZM9.11162 6.29398L7.03322 4.78019L4.95483 6.29398L5.74855 8.73242H8.3179L9.11162 6.29398Z" fill="#39906A"/>
</svg>
