<svg width="14" height="14" viewBox="0 0 14 14" fill="none" xmlns="http://www.w3.org/2000/svg">
<path d="M7.875 12.6219C7.875 13.0821 8.44873 13.2998 8.75995 12.9578L11.6812 9.74712C11.9752 9.42399 11.7434 8.90909 11.3039 8.90909H9.90553V1.37713C9.90553 1.09981 9.67825 0.875 9.3979 0.875H8.38263C8.10227 0.875 7.875 1.09981 7.875 1.37713V12.6219Z" fill="#39906A"/>
<path d="M6.125 1.37814C6.125 0.917945 5.55127 0.700172 5.24005 1.04223L2.31881 4.25288C2.0248 4.57601 2.25664 5.09091 2.69613 5.09091H4.09447V12.6229C4.09447 12.9002 4.32175 13.125 4.6021 13.125H5.61737C5.89773 13.125 6.125 12.9002 6.125 12.6229V1.37814Z" fill="#D80000"/>
</svg>
