<svg width="32" height="32" viewBox="0 0 32 32" fill="none" xmlns="http://www.w3.org/2000/svg">
<g clip-path="url(#clip0)">
<rect x="0.799805" y="5.59998" width="22.6806" height="21.4206" rx="2.54118" stroke="#39906A" stroke-width="2"/>
<path d="M23.481 20.5767H22.481V21.1541L22.981 21.4428L23.481 20.5767ZM29.2932 23.9325L29.7932 23.0664V23.0664L29.2932 23.9325ZM29.2932 9.21924L28.7932 8.35322L29.2932 9.21924ZM23.481 12.575L22.981 11.7089L22.481 11.9976V12.575H23.481ZM22.981 21.4428L28.7932 24.7985L29.7932 23.0664L23.981 19.7107L22.981 21.4428ZM28.7932 24.7985C30.307 25.6724 32.1991 24.58 32.1991 22.8321H30.1991C30.1991 23.0404 29.9736 23.1706 29.7932 23.0664L28.7932 24.7985ZM32.1991 22.8321V10.3196H30.1991V22.8321H32.1991ZM32.1991 10.3196C32.1991 8.5717 30.307 7.47927 28.7932 8.35322L29.7932 10.0853C29.9736 9.98112 30.1991 10.1113 30.1991 10.3196H32.1991ZM28.7932 8.35322L22.981 11.7089L23.981 13.441L29.7932 10.0853L28.7932 8.35322ZM22.481 12.575V20.5767H24.481V12.575H22.481Z" fill="#39906A"/>
<path d="M15.6567 15.314C16.1746 15.6247 16.1746 16.3752 15.6567 16.6859L10.0116 20.073C9.47843 20.3929 8.80005 20.0088 8.80005 19.387V12.6129C8.80005 11.9911 9.47843 11.607 10.0116 11.9269L15.6567 15.314Z" stroke="#39906A" stroke-width="2"/>
</g>
<defs>
<clipPath id="clip0">
<rect width="32" height="32" fill="white"/>
</clipPath>
</defs>
</svg>
