<svg width="40" height="40" viewBox="0 0 40 40" fill="none" xmlns="http://www.w3.org/2000/svg">
<path fill-rule="evenodd" clip-rule="evenodd" d="M17.5 2C27.1665 2 35 9.83354 35 19.5C35 29.1665 27.1665 37 17.5 37C7.83354 37 0 29.1228 0 19.4782C0 9.83354 7.83354 2 17.5 2ZM22.4135 6.24747C22.1734 6.07291 21.8679 6.07291 21.6716 6.24747L17.9839 8.90956C17.7657 9.08413 17.4602 9.08413 17.242 8.93139L12.987 6.24747C12.747 6.11655 12.4415 6.11655 12.2451 6.26929L7.59737 9.71692C7.37917 9.89148 7.29189 10.1315 7.33553 10.3715L8.18653 14.692C8.23017 14.9538 8.14289 15.2157 7.92468 15.3684L4.04064 18.1178C3.80062 18.2924 3.71333 18.5542 3.7788 18.816L5.67718 26.4532C5.74264 26.7587 6.0263 26.9551 6.33179 26.9551H11.2632C11.5469 26.9551 11.8087 27.1515 11.896 27.3915L13.6198 32.4538C13.7071 32.7375 13.9689 32.8902 14.2526 32.8902H20.9515C21.257 32.8902 21.5188 32.672 21.5843 32.3884L22.9153 27.4133C22.9808 27.1296 23.2426 26.9114 23.5481 26.9114H28.916C29.2214 26.9114 29.5051 26.6932 29.5706 26.3877L31.2944 18.7506C31.338 18.4887 31.2507 18.2269 31.0325 18.0742L27.214 15.3466C26.9958 15.2157 26.9085 14.932 26.9521 14.6702L27.8249 10.3715C27.8686 10.1097 27.7813 9.82602 27.5413 9.6951L22.4135 6.24747ZM23.1306 17.6173L17.5882 13.5805L12.0458 17.6173L14.1624 24.1198H21.014L23.1306 17.6173Z" fill="#39906A"/>
<rect x="15" y="33" width="19" height="4" rx="2" fill="#39906A"/>
<rect width="4" height="4" rx="2" transform="matrix(-1 0 0 1 40 33)" fill="#39906A"/>
</svg>
