<svg width="21" height="8" viewBox="0 0 21 8" fill="none" xmlns="http://www.w3.org/2000/svg">
<path d="M2.84091 8V0.968H0.464906V0.128H6.22491V0.968H3.84891V8H2.84091ZM7.6425 8V0.128H9.9825C10.3825 0.128 10.7465 0.164 11.0745 0.236C11.4105 0.308 11.6945 0.42 11.9265 0.572C12.1665 0.724 12.3505 0.924 12.4785 1.172C12.6145 1.412 12.6825 1.704 12.6825 2.048C12.6825 2.44 12.5825 2.796 12.3825 3.116C12.1905 3.428 11.9065 3.644 11.5305 3.764V3.812C12.0105 3.9 12.3985 4.1 12.6945 4.412C12.9905 4.724 13.1385 5.152 13.1385 5.696C13.1385 6.08 13.0665 6.416 12.9225 6.704C12.7785 6.992 12.5745 7.232 12.3105 7.424C12.0465 7.616 11.7305 7.76 11.3625 7.856C10.9945 7.952 10.5905 8 10.1505 8H7.6425ZM8.6385 3.476H9.8025C10.4745 3.476 10.9585 3.36 11.2545 3.128C11.5505 2.896 11.6985 2.58 11.6985 2.18C11.6985 1.724 11.5425 1.4 11.2305 1.208C10.9265 1.016 10.4665 0.92 9.8505 0.92H8.6385V3.476ZM8.6385 7.208H10.0065C10.6865 7.208 11.2145 7.084 11.5905 6.836C11.9665 6.58 12.1545 6.188 12.1545 5.66C12.1545 5.172 11.9705 4.816 11.6025 4.592C11.2345 4.36 10.7025 4.244 10.0065 4.244H8.6385V7.208ZM14.6972 8V0.128H16.6652C17.8812 0.128 18.8052 0.464 19.4372 1.136C20.0692 1.808 20.3852 2.772 20.3852 4.028C20.3852 4.652 20.3052 5.212 20.1452 5.708C19.9852 6.196 19.7492 6.612 19.4372 6.956C19.1252 7.292 18.7412 7.552 18.2852 7.736C17.8292 7.912 17.3052 8 16.7132 8H14.6972ZM15.6932 7.184H16.5932C17.5132 7.184 18.2012 6.908 18.6572 6.356C19.1212 5.804 19.3532 5.028 19.3532 4.028C19.3532 3.028 19.1212 2.264 18.6572 1.736C18.2012 1.208 17.5132 0.944 16.5932 0.944H15.6932V7.184Z" fill="#999999"/>
</svg>
