<svg width="32" height="31" viewBox="0 0 32 31" fill="none" xmlns="http://www.w3.org/2000/svg">
<g clip-path="url(#clip0)" filter="url(#filter0_d)">
<mask id="path-1-inside-1" fill="white">
<path d="M16.0086 1.20001L28.0086 22.8H4.00864L16.0086 1.20001Z"/>
</mask>
<path d="M16.0086 1.20001L17.5821 0.325855L16.0086 -2.50641L14.4352 0.325855L16.0086 1.20001ZM28.0086 22.8V24.6H31.0678L29.5821 21.9259L28.0086 22.8ZM4.00864 22.8L2.43515 21.9259L0.94951 24.6H4.00864V22.8ZM14.4352 2.07417L26.4352 23.6742L29.5821 21.9259L17.5821 0.325855L14.4352 2.07417ZM28.0086 21H4.00864V24.6H28.0086V21ZM5.58212 23.6742L17.5821 2.07417L14.4352 0.325855L2.43515 21.9259L5.58212 23.6742Z" fill="#333333" mask="url(#path-1-inside-1)"/>
<rect x="5.2" y="7.79999" width="22.8" height="10.8" fill="white"/>
<path d="M6.15654 9.59998H12.4745V10.6044H9.90414V17.3112H8.73774V10.6044H6.15654V9.59998Z" fill="#D80000"/>
<path d="M12.8056 9.59998H16.3264C17.0824 9.59998 17.6728 9.77998 18.0976 10.14C18.508 10.4856 18.7132 10.9536 18.7132 11.544C18.7132 11.976 18.6052 12.3432 18.3892 12.6456C18.166 12.9336 17.8672 13.146 17.4928 13.2828C18.004 13.3836 18.3892 13.5888 18.6484 13.8984C18.9076 14.208 19.0372 14.6256 19.0372 15.1512C19.0372 15.9216 18.7708 16.4904 18.238 16.8576C17.7844 17.16 17.1472 17.3112 16.3264 17.3112H12.8056V9.59998ZM13.9828 10.572V12.8724H16.0132C16.546 12.8724 16.9348 12.7788 17.1796 12.5916C17.4172 12.3972 17.536 12.0948 17.536 11.6844C17.536 11.2956 17.4172 11.0148 17.1796 10.842C16.9492 10.662 16.5676 10.572 16.0348 10.572H13.9828ZM13.9828 13.8336V16.3392H16.1644C16.6468 16.3392 17.0356 16.26 17.3308 16.1016C17.6836 15.8928 17.86 15.5688 17.86 15.1296C17.86 14.676 17.7232 14.3448 17.4496 14.136C17.1832 13.9344 16.7656 13.8336 16.1968 13.8336H13.9828Z" fill="#D80000"/>
<path d="M19.6201 9.59998H22.4281C23.6665 9.59998 24.6097 9.94918 25.2577 10.6476C25.8625 11.2956 26.1649 12.2316 26.1649 13.4556C26.1649 14.658 25.8553 15.5976 25.2361 16.2744C24.5881 16.9656 23.6449 17.3112 22.4065 17.3112H19.6201V9.59998ZM20.7973 10.6044V16.3068H22.1905C23.1697 16.3068 23.8861 16.0728 24.3397 15.6048C24.7861 15.1368 25.0093 14.4204 25.0093 13.4556C25.0093 12.4764 24.7897 11.7564 24.3505 11.2956C23.8969 10.8348 23.1841 10.6044 22.2121 10.6044H20.7973Z" fill="#D80000"/>
</g>
<defs>
<filter id="filter0_d" x="0" y="0" width="32" height="32" filterUnits="userSpaceOnUse" color-interpolation-filters="sRGB">
<feFlood flood-opacity="0" result="BackgroundImageFix"/>
<feColorMatrix in="SourceAlpha" type="matrix" values="0 0 0 0 0 0 0 0 0 0 0 0 0 0 0 0 0 0 127 0"/>
<feOffset dy="4"/>
<feGaussianBlur stdDeviation="2"/>
<feColorMatrix type="matrix" values="0 0 0 0 0 0 0 0 0 0 0 0 0 0 0 0 0 0 0.25 0"/>
<feBlend mode="normal" in2="BackgroundImageFix" result="effect1_dropShadow"/>
<feBlend mode="normal" in="SourceGraphic" in2="effect1_dropShadow" result="shape"/>
</filter>
<clipPath id="clip0">
<rect width="24" height="24" fill="white" transform="translate(4)"/>
</clipPath>
</defs>
</svg>
