<svg width="48" height="48" viewBox="0 0 48 48" fill="none" xmlns="http://www.w3.org/2000/svg">
<path d="M32 32.6909L31.1989 31.4227C30.7638 31.6976 30.5 32.1763 30.5 32.6909H32ZM16 32.6909H17.5C17.5 32.1763 17.2362 31.6976 16.8011 31.4227L16 32.6909ZM37.5 20C37.5 24.8072 34.9885 29.0288 31.1989 31.4227L32.8011 33.959C37.4242 31.0386 40.5 25.8791 40.5 20H37.5ZM24 6.5C31.4558 6.5 37.5 12.5442 37.5 20H40.5C40.5 10.8873 33.1127 3.5 24 3.5V6.5ZM10.5 20C10.5 12.5442 16.5442 6.5 24 6.5V3.5C14.8873 3.5 7.5 10.8873 7.5 20H10.5ZM16.8011 31.4227C13.0115 29.0288 10.5 24.8072 10.5 20H7.5C7.5 25.8791 10.5758 31.0386 15.1989 33.959L16.8011 31.4227ZM17.5 35V32.6909H14.5V35H17.5ZM18 35.5C17.7239 35.5 17.5 35.2761 17.5 35H14.5C14.5 36.933 16.067 38.5 18 38.5V35.5ZM30 35.5H18V38.5H30V35.5ZM30.5 35C30.5 35.2761 30.2761 35.5 30 35.5V38.5C31.933 38.5 33.5 36.933 33.5 35H30.5ZM30.5 32.6909V35H33.5V32.6909H30.5Z" fill="#39906A"/>
<path d="M16 19C16 15.134 19.134 12 23 12" stroke="#39906A" stroke-width="3" stroke-linecap="round" stroke-linejoin="round"/>
<path d="M29 42H19" stroke="#39906A" stroke-width="3" stroke-linecap="round"/>
</svg>
