<svg width="120" height="120" viewBox="0 0 120 120" fill="none" xmlns="http://www.w3.org/2000/svg">
<circle cx="60" cy="60" r="60" fill="#F2F2F2"/>
<path fill-rule="evenodd" clip-rule="evenodd" d="M85.0018 55C85.0018 68.8071 73.8089 80 60.0018 80C46.1947 80 35.0018 68.8071 35.0018 55C35.0018 41.1935 46.1936 30.0011 59.9999 30H60.0018H84.9999V54.6846C85.0011 54.7896 85.0018 54.8947 85.0018 55ZM60.0005 85.0004C44.2212 85.0004 30.8807 95.4424 26.5122 109.793C36.0767 116.239 47.5989 120.001 59.9999 120.001C72.4013 120.001 83.9239 116.238 93.4886 109.793C89.1199 95.442 75.7796 85.0004 60.0005 85.0004Z" fill="#CCCCCC"/>
</svg>
