<svg width="680" height="302" viewBox="0 0 680 302" fill="none" xmlns="http://www.w3.org/2000/svg">
<rect width="679.998" height="302" rx="16" fill="#338963"/>
<path d="M0 16C0 7.16344 7.16344 0 16 0H63.75V302H16C7.16343 302 0 294.837 0 286V16Z" fill="#39906A"/>
<rect x="123.25" width="63.75" height="302" fill="#39906A"/>
<rect x="246.5" width="63.75" height="302" fill="#39906A"/>
<rect x="369.749" width="63.75" height="302" fill="#39906A"/>
<rect x="493" width="63.75" height="302" fill="#39906A"/>
<path d="M616.249 0H663.999C672.836 0 679.999 7.16344 679.999 16V286C679.999 294.837 672.836 302 663.999 302H616.249V0Z" fill="#39906A"/>
<g opacity="0.2">
<path d="M389.967 151.531C389.967 179.151 367.594 201.541 339.998 201.541C312.401 201.541 290.029 179.151 290.029 151.531C290.029 123.911 312.401 101.521 339.998 101.521C367.594 101.521 389.967 123.911 389.967 151.531Z" stroke="white"/>
<path d="M339.999 0V302" stroke="white"/>
</g>
<g opacity="0.2">
<path d="M582.25 108.465C567.191 115.916 556.75 132.16 556.75 151C556.75 169.84 567.191 186.084 582.25 193.535" stroke="white"/>
<path d="M679.999 70.1836H582.25V231.817H679.999" stroke="white"/>
<path d="M680 112.719H650.25V189.282H680" stroke="white"/>
<ellipse cx="617.313" cy="150.999" rx="6.375" ry="6.38028" fill="white"/>
<path d="M680 14.8873C671.785 14.8873 665.125 8.22204 665.125 0" stroke="white"/>
<path d="M680 287.113C671.785 287.113 665.125 293.778 665.125 302" stroke="white"/>
</g>
<g opacity="0.2">
<path d="M97.75 193.535C112.809 186.084 123.25 169.84 123.25 151C123.25 132.16 112.809 115.916 97.75 108.465" stroke="white"/>
<path d="M0.00104237 231.816H97.751V70.1826H0.00104237" stroke="white"/>
<path d="M0.000506822 189.281H29.7505V112.718H0.000506822" stroke="white"/>
<ellipse cx="62.688" cy="151.001" rx="6.375" ry="6.38028" transform="rotate(-180 62.688 151.001)" fill="white"/>
<path d="M0.000498295 287.113C8.21573 287.113 14.8755 293.778 14.8755 302" stroke="white"/>
<path d="M0.000498295 14.8873C8.21573 14.8873 14.8755 8.22204 14.8755 0" stroke="white"/>
</g>
</svg>
