<svg width="233" height="95" viewBox="0 0 233 95" fill="none" xmlns="http://www.w3.org/2000/svg">
<path fill-rule="evenodd" clip-rule="evenodd" d="M71.0645 7.02209C71.0645 3.1439 74.194 0 78.0545 0H156.109C159.97 0 163.099 3.1439 163.099 7.02209V56.9192C163.099 57.4787 162.646 57.9322 162.086 57.9322H159.452C158.893 57.9322 158.439 57.4787 158.439 56.9192V7.02209C158.439 5.72936 157.396 4.68139 156.109 4.68139H78.0545C76.7676 4.68139 75.7245 5.72936 75.7245 7.02209V56.9192C75.7245 57.4787 75.2709 57.9322 74.7114 57.9322H72.0775C71.518 57.9322 71.0645 57.4787 71.0645 56.9192V7.02209Z" fill="#39906A"/>
<ellipse opacity="0.2" cx="116.5" cy="69.0503" rx="116.5" ry="25.1625" fill="url(#paint0_radial)"/>
<path opacity="0.2" d="M190.477 57.347H160.188L163.1 3.51099L190.477 57.347Z" fill="url(#paint1_linear)"/>
<path opacity="0.4" d="M103.102 57.347H72.8125L75.725 3.51099L103.102 57.347Z" fill="url(#paint2_linear)"/>
<path opacity="0.2" d="M68.7344 57.6399C68.7344 56.5088 69.6285 55.5918 70.7315 55.5918H76.0572C77.1602 55.5918 78.0544 56.5088 78.0544 57.6399C78.0544 58.771 77.1602 59.688 76.0572 59.688H70.7315C69.6285 59.688 68.7344 58.771 68.7344 57.6399Z" fill="#39906A"/>
<path opacity="0.2" d="M156.109 57.6399C156.109 56.5088 157.004 55.5918 158.107 55.5918H163.432C164.535 55.5918 165.429 56.5088 165.429 57.6399C165.429 58.771 164.535 59.688 163.432 59.688H158.107C157.004 59.688 156.109 58.771 156.109 57.6399Z" fill="#39906A"/>
<path opacity="0.2" d="M75.7246 3.51099L103.102 57.347L157.857 55.0063V5.26651L75.7246 3.51099Z" fill="url(#paint3_linear)"/>
<path fill-rule="evenodd" clip-rule="evenodd" d="M39.3055 71.7019C40.7521 67.541 44.3356 64.2669 48.9635 63.4471C49.807 63.2977 50.6456 63.2368 51.4699 63.2578C48.4326 64.5981 46.2361 67.6068 45.4587 71.2693C47.6195 69.4899 50.3833 68.4221 53.3954 68.4221C54.2534 68.4221 55.0912 68.5087 55.9006 68.6738C51.3555 69.7858 47.8825 74.4572 47.5709 80.1695H43.3714H40.8945H36.695C36.3833 74.4572 32.9103 69.7858 28.3652 68.6738C29.1747 68.5087 30.0125 68.4221 30.8705 68.4221C34.1193 68.4221 37.0793 69.6644 39.3055 71.7019Z" fill="url(#paint4_linear)"/>
<defs>
<radialGradient id="paint0_radial" cx="0" cy="0" r="1" gradientUnits="userSpaceOnUse" gradientTransform="translate(116.5 33.6473) rotate(90) scale(71.0987 329.18)">
<stop stop-color="#39906A"/>
<stop offset="0.677825" stop-color="white"/>
</radialGradient>
<linearGradient id="paint1_linear" x1="166.013" y1="23.1143" x2="175.412" y2="57.3251" gradientUnits="userSpaceOnUse">
<stop stop-color="#39906A"/>
<stop offset="1" stop-color="#39906A" stop-opacity="0"/>
</linearGradient>
<linearGradient id="paint2_linear" x1="78.6375" y1="23.1143" x2="88.0373" y2="57.3251" gradientUnits="userSpaceOnUse">
<stop stop-color="#39906A"/>
<stop offset="1" stop-color="#39906A" stop-opacity="0"/>
</linearGradient>
<linearGradient id="paint3_linear" x1="78.6371" y1="23.1143" x2="88.0369" y2="57.3251" gradientUnits="userSpaceOnUse">
<stop stop-color="#39906A"/>
<stop offset="1" stop-color="#39906A" stop-opacity="0"/>
</linearGradient>
<linearGradient id="paint4_linear" x1="41.7292" y1="62.5517" x2="41.7292" y2="80.1695" gradientUnits="userSpaceOnUse">
<stop offset="0.058639" stop-color="#39906A"/>
<stop offset="0.983663" stop-color="white"/>
</linearGradient>
</defs>
</svg>
