<?xml version="1.0" encoding="UTF-8"?>
<svg width="20px" height="20px" viewBox="0 0 20 20" version="1.1" xmlns="http://www.w3.org/2000/svg" xmlns:xlink="http://www.w3.org/1999/xlink">
    <!-- Generator: Sketch 52.2 (67145) - http://www.bohemiancoding.com/sketch -->
    <title>1.图标/倒计时</title>
    <desc>Created with Sketch.</desc>
    <g id="web直播模块-首页" stroke="none" stroke-width="1" fill="none" fill-rule="evenodd">
        <g id="live列表无数据时：--" transform="translate(-633.000000, -387.000000)">
            <g id="编组-2" transform="translate(631.000000, 385.000000)">
                <g id="1.图标/倒计时">
                    <path d="M0,0 L24,0 L24,24 L0,24 L0,0 Z" id="背景"></path>
                    <g id="倒计时" stroke-width="1" fill-rule="evenodd" transform="translate(2.400000, 2.400000)" fill="#737373">
                        <path d="M18.3978345,0 C18.8388283,0 19.1967611,0.355198285 19.1999722,0.796784566 C19.2025411,1.2340836 18.8506024,1.59099678 18.4138901,1.59356913 L16.8001955,1.59356913 L16.8001955,3.78242229 C16.8001955,6.32797428 15.2023425,8.5056806 12.8854127,9.6 C15.2023425,10.6831726 16.8001955,12.8720257 16.8001955,15.4175777 L16.8001955,17.6064309 L18.3980486,17.6064309 C18.8375438,17.6064309 19.193764,17.9631297 19.193764,18.4032154 C19.193764,18.8433012 18.8375438,19.2 18.3980486,19.2 L0.818025463,19.2 L0.674167308,19.1871383 C0.24066617,19.120686 -0.0571116478,18.7148982 0.00925148924,18.2808146 C0.0700486858,17.8825295 0.418990342,17.5927117 0.821236582,17.6062165 L2.43193414,17.6062165 L2.43193414,15.4177921 C2.43193414,12.8722401 4.0282887,10.6945338 6.346717,9.60021436 C4.0282887,8.5170418 2.43193414,6.32818864 2.43193414,3.78263666 L2.43193414,1.59356913 L0.821236582,1.59356913 C0.381741355,1.59356913 0.0255211615,1.23687031 0.0255211615,0.796784566 C0.0255211615,0.356698821 0.381741355,1.52313555e-16 0.821236582,1.52313555e-16 L18.3978345,0 Z M15.2019143,1.59356913 L4.0248635,1.59356913 L4.0248635,3.77127546 C4.0248635,5.66730975 5.21854367,7.4113612 7.05594627,8.28810289 C7.61211217,8.58092176 7.93001301,9.09131833 7.93001301,9.60021436 C7.94606861,10.1789925 7.59562843,10.7048232 7.05594627,10.9123258 C5.22967555,11.7890675 4.0248635,13.533119 4.02636203,15.4291533 L4.02636203,17.6276527 L4.91627029,17.6276527 L4.91627029,16.6996785 C4.91627029,14.987567 5.54586379,13.1108253 7.49843854,11.9699893 L7.81805197,11.7954984 C8.54676203,11.4803859 9.14424434,10.8130761 9.60921445,9.79549839 C9.9767806,10.7378349 10.5999519,11.4051447 11.4819394,11.7954984 C13.878719,13.0355841 14.257417,14.8994641 14.257417,16.6994641 L14.257417,17.6274384 L15.2017002,17.6274384 L15.2017002,15.4400857 C15.2017002,13.5440514 14.0097327,11.8 12.172116,10.9215434 C11.6161642,10.6287245 11.2980493,10.1198285 11.2980493,9.60943194 C11.2980493,9.02550911 11.6159501,8.51661308 12.172116,8.29903537 C13.9983867,7.42379421 15.2017002,5.67974277 15.2017002,3.78220793 L15.2017002,1.59356913 L15.2019143,1.59356913 Z M14.0915092,4.8 C14.0915092,5.84008574 12.8132695,7.00493033 11.621302,7.49924973 C10.9086475,7.79528403 10.2375235,8.35198285 9.6096426,9.16977492 C9.01515734,8.35219721 8.36330007,7.79528403 7.65856637,7.49946409 C6.38503636,6.96505895 5.29539647,5.89474812 5.29539647,4.80021436 L14.0915092,4.80021436 L14.0915092,4.8 Z" id="形状" fill-rule="nonzero"></path>
                    </g>
                </g>
            </g>
        </g>
    </g>
</svg>