<svg t="1623844567646" class="icon" viewBox="0 0 1024 1024" version="1.1" xmlns="http://www.w3.org/2000/svg" p-id="1197" width="48" height="48"><path d="M512 1024C229.2224 1024 0 794.7776 0 512S229.2224 0 512 0s512 229.2224 512 512-229.2224 512-512 512z m0-256c-33.024 0-65.9968 2.8672-98.5088 8.5504C443.392 896.8192 488.448 960 512 960c23.552 0 68.5568-63.1296 98.5088-183.3984A577.536 577.536 0 0 0 512 768z m160.768 23.3472c-15.5136 63.6416-36.352 117.248-60.672 156.9792a447.2832 447.2832 0 0 0 193.1264-98.4064 542.4128 542.4128 0 0 0-132.4032-58.5728z m-321.536 0c-46.592 13.568-91.0336 33.28-132.352 58.5728a446.6688 446.6688 0 0 0 193.024 98.304c-24.3712-39.6288-45.056-93.2864-60.7232-156.8768z m352.2048-247.296a1232.2816 1232.2816 0 0 1-17.664 184.4224 605.696 605.696 0 0 1 165.5296 75.2128 445.5936 445.5936 0 0 0 107.0592-259.584h-254.976z m-637.7984 0a445.952 445.952 0 0 0 106.8032 259.5328 604.4672 604.4672 0 0 1 165.7344-75.008 1236.6848 1236.6848 0 0 1-17.6128-184.5248h-254.976z m318.976 0a1154.048 1154.048 0 0 0 15.872 169.9328 637.5424 637.5424 0 0 1 223.0272-0.1024c8.5504-49.5104 14.336-106.3424 15.872-169.8304H384.6144z m466.688-323.6864a605.2352 605.2352 0 0 1-165.5296 75.2128c9.984 56.7296 16.1792 118.8864 17.664 184.4224h254.976a445.5424 445.5424 0 0 0-107.1104-259.584zM400.4352 310.0672a1186.4576 1186.4576 0 0 0-15.872 169.9328h254.7712a1141.1456 1141.1456 0 0 0-15.9744-169.7792c-73.728 13.056-149.1456 13.0048-222.8736-0.1536z m-227.84-89.6a445.2864 445.2864 0 0 0-106.8544 259.5328h254.976c1.4336-65.6896 7.68-127.7952 17.6128-184.5248a604.416 604.416 0 0 1-165.7344-75.008zM512 64.0512c-23.552 0-68.5568 63.1296-98.5088 183.3984A577.536 577.536 0 0 0 512 256.0512c33.7408 0 66.6112-3.072 98.5088-8.5504C580.608 127.1808 535.552 64 512 64v0.0512z m100.096 11.6736c24.3712 39.7312 45.1584 93.3376 60.7232 156.9792 46.592-13.5168 91.0848-33.1776 132.4032-58.4704a446.2592 446.2592 0 0 0-193.1264-98.5088z m-200.192 0a446.6688 446.6688 0 0 0-193.024 98.304 538.112 538.112 0 0 0 132.3008 58.5728c15.7184-63.5392 36.4032-117.1456 60.7232-156.8768z" p-id="1198" data-spm-anchor-id="a313x.7781069.0.i0" class="selected" fill="#39906A"></path></svg>
