<svg width="24" height="24" viewBox="0 0 24 24" fill="none" xmlns="http://www.w3.org/2000/svg">
<rect x="4.5" y="4.5" width="15" height="1.5" rx="0.75" fill="#333333"/>
<path d="M12 12C12 11.5858 12.3358 11.25 12.75 11.25H18.75C19.1642 11.25 19.5 11.5858 19.5 12C19.5 12.4142 19.1642 12.75 18.75 12.75H12.75C12.3358 12.75 12 12.4142 12 12Z" fill="#333333"/>
<path d="M8.25 18.75C8.25 18.3358 8.58579 18 9 18H18.75C19.1642 18 19.5 18.3358 19.5 18.75C19.5 19.1642 19.1642 19.5 18.75 19.5H9C8.58579 19.5 8.25 19.1642 8.25 18.75Z" fill="#333333"/>
</svg>
