<?xml version="1.0" encoding="UTF-8"?>
<svg width="15px" height="14px" viewBox="0 0 15 14" version="1.1" xmlns="http://www.w3.org/2000/svg" xmlns:xlink="http://www.w3.org/1999/xlink">
    <!-- Generator: Sketch 52.2 (67145) - http://www.bohemiancoding.com/sketch -->
    <title>1.图标/回复</title>
    <desc>Created with Sketch.</desc>
    <g id="控件" stroke="none" stroke-width="1" fill="none" fill-rule="evenodd">
        <g id="2.内容输入/资讯模块/评价" transform="translate(-545.000000, -6.000000)" fill="#999999" fill-rule="nonzero">
            <g id="编组" transform="translate(543.000000, 4.000000)">
                <g id="1.图标/回复">
                    <path d="M2.975,15.6 C2.65683333,15.6 2.4,15.3473143 2.4,15.0342857 L2.4,4.09714286 C2.4,3.16182857 3.17433333,2.4 4.125,2.4 L14.475,2.4 C15.4256667,2.4 16.2,3.16182857 16.2,4.09714286 L16.2,11.8285714 C16.2,12.7638857 15.4256667,13.5257143 14.475,13.5257143 L6.2525,13.5257143 C5.93433333,13.5257143 5.6775,13.2730286 5.6775,12.96 C5.6775,12.6469714 5.93433333,12.3942857 6.2525,12.3942857 L14.475,12.3942857 C14.79125,12.3942857 15.05,12.1397143 15.05,11.8285714 L15.05,4.09714286 C15.05,3.786 14.79125,3.53142857 14.475,3.53142857 L4.125,3.53142857 C3.80875,3.53142857 3.55,3.786 3.55,4.09714286 L3.55,15.0342857 C3.55,15.3454286 3.29125,15.6 2.975,15.6 Z M12.3685833,7.482 L6.07616667,7.482 C5.758,7.482 5.50116667,7.22931429 5.50116667,6.91628571 C5.50116667,6.60325714 5.758,6.35057143 6.07616667,6.35057143 L12.3685833,6.35057143 C12.68675,6.35057143 12.9435833,6.60325714 12.9435833,6.91628571 C12.9435833,7.22931429 12.68675,7.482 12.3685833,7.482 Z M8.89366667,10.122 L6.05125,10.122 C5.73308333,10.122 5.47625,9.86931429 5.47625,9.55628571 C5.47625,9.24325714 5.73308333,8.99057143 6.05125,8.99057143 L8.89366667,8.99057143 C9.21183333,8.99057143 9.46866667,9.24325714 9.46866667,9.55628571 C9.46866667,9.86931429 9.21183333,10.122 8.89366667,10.122 Z M3.1475,15.5057143 C2.95966667,15.5057143 2.77758333,15.4152 2.66641667,15.2511429 C2.492,14.9890286 2.56675,14.6382857 2.83125,14.4685714 L5.89791667,12.4885714 C6.16433333,12.3169714 6.52083333,12.3905143 6.69333333,12.6507429 C6.86775,12.9128571 6.793,13.2636 6.5285,13.4333143 L3.46183333,15.4133143 C3.366,15.4755429 3.25483333,15.5057143 3.1475,15.5057143 Z" id="形状"></path>
                </g>
            </g>
        </g>
    </g>
</svg>