<svg width="24" height="24" viewBox="0 0 24 24" fill="none" xmlns="http://www.w3.org/2000/svg">
<path d="M13.7837 22.0925C13.7837 22.898 14.7879 23.2792 15.3326 22.6805L20.4458 17.0608C20.9604 16.4952 20.5546 15.594 19.7853 15.594H17.3378V2.41063C17.3378 1.92523 16.94 1.53174 16.4493 1.53174H14.6722C14.1815 1.53174 13.7837 1.92523 13.7837 2.41063V22.0925Z" fill="#39906A"/>
<path d="M10.7207 2.41236C10.7207 1.60687 9.7165 1.2257 9.17175 1.82441L4.05864 7.44407C3.54404 8.00966 3.94982 8.91091 4.71907 8.91091H7.16662V22.0943C7.16662 22.5797 7.56443 22.9731 8.05514 22.9731H9.83218C10.3229 22.9731 10.7207 22.5797 10.7207 22.0943V2.41236Z" fill="#D80000"/>
</svg>
