<svg width="24" height="24" viewBox="0 0 24 24" fill="none" xmlns="http://www.w3.org/2000/svg">
<path fill-rule="evenodd" clip-rule="evenodd" d="M12 0.75C18.2142 0.75 23.25 5.78585 23.25 12C23.25 18.2142 18.2142 23.25 12 23.25C5.78585 23.25 0.75 18.1861 0.75 11.986C0.75 5.78585 5.78585 0.75 12 0.75ZM15.1585 3.48038C15.0042 3.36816 14.8078 3.36816 14.6815 3.48038L12.3109 5.19173C12.1706 5.30395 11.9742 5.30395 11.834 5.20575L9.09862 3.48038C8.94431 3.39622 8.74793 3.39622 8.62168 3.49441L5.63384 5.71074C5.49357 5.82296 5.43746 5.97726 5.46551 6.13157L6.01258 8.909C6.04064 9.07733 5.98453 9.24565 5.84425 9.34385L3.34737 11.1113C3.19307 11.2235 3.13696 11.3919 3.17904 11.5602L4.39943 16.4698C4.44151 16.6662 4.62387 16.7924 4.82025 16.7924H7.99045C8.17281 16.7924 8.34114 16.9187 8.39724 17.073L9.50541 20.3273C9.56152 20.5097 9.72985 20.6079 9.91221 20.6079H14.2186C14.415 20.6079 14.5833 20.4676 14.6254 20.2852L15.4811 17.087C15.5232 16.9046 15.6915 16.7644 15.8879 16.7644H19.3386C19.535 16.7644 19.7174 16.6241 19.7595 16.4277L20.8676 11.5181C20.8957 11.3498 20.8396 11.1814 20.6993 11.0832L18.2445 9.32982C18.1042 9.24566 18.0481 9.0633 18.0762 8.89497L18.6373 6.13157C18.6653 5.96324 18.6092 5.78088 18.4549 5.69671L15.1585 3.48038ZM15.62 10.7896L12.057 8.19453L8.49403 10.7896L9.85469 14.9698H14.2593L15.62 10.7896Z" fill="#46494C"/>
</svg>
