<svg width="24" height="25" viewBox="0 0 24 25" fill="none" xmlns="http://www.w3.org/2000/svg">
<g clip-path="url(#clip0)">
<path fill-rule="evenodd" clip-rule="evenodd" d="M12 1.67773C18.2142 1.67773 23.25 6.71358 23.25 12.9277C23.25 19.1419 18.2142 24.1777 12 24.1777C5.78585 24.1777 0.75 19.1138 0.75 12.9137C0.75 6.71358 5.78585 1.67773 12 1.67773ZM15.1585 4.40812C15.0042 4.2959 14.8078 4.2959 14.6815 4.40812L12.3109 6.11946C12.1706 6.23168 11.9742 6.23168 11.834 6.13349L9.09862 4.40812C8.94431 4.32395 8.74793 4.32395 8.62168 4.42214L5.63384 6.63848C5.49357 6.7507 5.43746 6.905 5.46551 7.0593L6.01258 9.83673C6.04064 10.0051 5.98453 10.1734 5.84425 10.2716L3.34737 12.039C3.19307 12.1513 3.13696 12.3196 3.17904 12.4879L4.39943 17.3975C4.44151 17.5939 4.62387 17.7201 4.82025 17.7201H7.99045C8.17281 17.7201 8.34114 17.8464 8.39724 18.0007L9.50541 21.2551C9.56152 21.4374 9.72985 21.5356 9.91221 21.5356H14.2186C14.415 21.5356 14.5833 21.3953 14.6254 21.213L15.4811 18.0147C15.5232 17.8324 15.6915 17.6921 15.8879 17.6921H19.3386C19.535 17.6921 19.7174 17.5518 19.7595 17.3554L20.8676 12.4458C20.8957 12.2775 20.8396 12.1092 20.6993 12.011L18.2445 10.2576C18.1042 10.1734 18.0481 9.99103 18.0762 9.8227L18.6373 7.0593C18.6653 6.89097 18.6092 6.70861 18.4549 6.62445L15.1585 4.40812ZM15.62 11.7173L12.057 9.12226L8.49403 11.7173L9.85469 15.8975H14.2593L15.62 11.7173Z" fill="#39906A"/>
</g>
<defs>
<clipPath id="clip0">
<rect width="24" height="24" fill="white" transform="translate(0 0.927734)"/>
</clipPath>
</defs>
</svg>
