<svg width="1024" height="450" viewBox="0 0 1024 450" fill="none" xmlns="http://www.w3.org/2000/svg">
<path d="M886.555 60.2211C882.709 63.077 879.753 67.1333 878.673 71.6368H903.083L906.817 56H898.681C894.374 56 890.083 57.6006 886.555 60.2211Z" fill="#39906A"/>
<path fill-rule="evenodd" clip-rule="evenodd" d="M678.674 152.01L907.151 152.002L908.104 152.01C931.1 152.01 953.73 134.027 958.641 111.839C963.472 89.9333 949.233 72.1232 926.73 71.676L925.872 71.6682H614.248C642.17 92.3812 664.514 120.022 678.674 152.01ZM942.367 111.839C939.364 125.357 925.585 136.31 911.585 136.31C897.568 136.31 888.637 125.357 891.625 111.839C894.612 98.3205 908.391 87.3677 922.407 87.3677C936.408 87.3677 945.355 98.3205 942.367 111.839Z" fill="#39906A"/>
<path d="M687.462 393.034C687.462 318.012 703.958 247.792 732.833 192.18H829.011C823.576 198.826 818.236 206.374 813.071 214.871C786.548 258.517 768.828 321.41 768.828 393.034H687.462Z" fill="#39906A"/>
<path d="M441.359 295.109C455.28 306.109 472.936 312.691 492.165 312.691C537.107 312.691 573.531 276.718 573.531 232.35C573.531 187.982 537.107 152.008 492.165 152.008C447.223 152.008 410.799 187.982 410.799 232.35C410.799 273.101 395.431 310.306 370.116 338.638C340.303 371.99 296.663 393.033 248.066 393.033C158.198 393.033 85.3335 321.094 85.3335 232.35C85.3335 143.605 158.198 71.6667 248.066 71.6667C282.011 71.6667 313.525 81.9291 339.619 99.4882C321.582 119.66 307.581 143.441 298.872 169.591C284.951 158.591 267.295 152.008 248.066 152.008C203.124 152.008 166.7 187.982 166.7 232.35C166.7 276.718 203.124 312.691 248.066 312.691C293.008 312.691 329.432 276.718 329.432 232.35C329.432 193.529 343.386 157.916 366.588 130.142L368.145 128.33L370.116 126.062C399.929 92.7093 443.568 71.6667 492.165 71.6667C504.243 71.6667 516.003 72.9692 527.334 75.4328C533.373 76.743 539.285 78.3828 545.053 80.3443C546.086 80.6895 547.103 81.0504 548.12 81.4191C584.131 94.4354 614.167 119.66 633.126 152.008C646.968 175.64 654.898 203.085 654.898 232.35C654.898 321.094 582.034 393.033 492.165 393.033C474.35 393.033 457.219 390.208 441.184 384.991C426.659 380.26 413.024 373.56 400.612 365.212C418.649 345.04 432.65 321.259 441.359 295.109Z" fill="#333333"/>
</svg>
