<?xml version="1.0" encoding="UTF-8"?>
<svg width="18px" height="18px" viewBox="0 0 18 18" version="1.1" xmlns="http://www.w3.org/2000/svg" xmlns:xlink="http://www.w3.org/1999/xlink">
    <title>图标_事件_关闭_已选</title>
    <g id="页面-1" stroke="none" stroke-width="1" fill="none" fill-rule="evenodd">
        <g id="画板" transform="translate(-263.000000, -11.000000)">
            <g id="编组" transform="translate(263.000000, 11.000000)">
                <path d="M0,0 L18,0 L18,18 L0,18 L0,0 Z" id="背景"></path>
                <g id="关闭2-fill" transform="translate(1.000000, 1.000000)" fill="#D80000" fill-rule="nonzero">
                    <path d="M8,0 C3.58913357,0 0,3.58858064 0,8 C0,12.4114194 3.58858064,16 8,16 C12.4108664,16 16,12.4114194 16,8 C16,3.58858064 12.4114194,0 8,0 Z M11.2634323,10.4640006 C11.4862902,10.6879951 11.4857066,11.0491447 11.2622958,11.2720026 C11.1508822,11.3828633 11.0051568,11.4388619 10.8588784,11.4388619 C10.7120164,11.4388619 10.5657381,11.3828633 10.4542938,11.270866 L7.99714325,8.80628179 L5.53200607,11.2451552 C5.42059248,11.3548793 5.27541998,11.4102943 5.1302782,11.4102943 C4.98286329,11.4102943 4.83600132,11.3537121 4.72400407,11.2405782 C4.50228271,11.0160001 4.50400291,10.6548505 4.72858104,10.4325762 L7.19086145,7.99714323 L4.73770423,5.53599937 C4.51484632,5.31255782 4.51542996,4.95085529 4.73884079,4.72799737 C4.96228234,4.50455582 5.32340123,4.50572311 5.54684279,4.72913393 L8.00340968,7.19313454 L10.4685469,4.75429182 C10.6925413,4.53201755 11.0548275,4.53429066 11.2765489,4.75886879 C11.4988231,4.98344689 11.49655,5.34514943 11.2719719,5.56687079 L8.8097222,8.00227312 L11.2634323,10.4640006 Z" id="形状"></path>
                </g>
            </g>
        </g>
    </g>
</svg>