<?xml version="1.0" encoding="UTF-8"?>
<svg width="18px" height="18px" viewBox="0 0 18 18" version="1.1" xmlns="http://www.w3.org/2000/svg" xmlns:xlink="http://www.w3.org/1999/xlink">
    <title>切片</title>
    <g id="页面-1" stroke="none" stroke-width="1" fill="none" fill-rule="evenodd">
        <g id="画板" transform="translate(-239.000000, -11.000000)">
            <g id="编组" transform="translate(239.000000, 11.000000)">
                <path d="M0,0 L18,0 L18,18 L0,18 L0,0 Z" id="背景"></path>
                <g id="选择3" transform="translate(1.000000, 1.000000)" fill-rule="nonzero">
                    <path d="M8,0 C3.6,0 0,3.6 0,8 C0,12.4 3.6,16 8,16 C12.4,16 16,12.4 16,8 C16,3.6 12.4,0 8,0 Z" id="路径" fill="#39906A"></path>
                    <path d="M12.825266,6.07888041 L6.53484231,12.8371501 C6.45718276,12.9185751 6.30186366,13 6.14654455,13 C5.99122545,13 5.83590634,12.9185751 5.75824679,12.8371501 L2.18590741,9.49872774 C1.95292875,9.25445293 1.95292875,8.84732824 2.10824786,8.60305344 C2.34122651,8.35877863 2.72952427,8.35877863 2.96250293,8.5216285 L6.068885,11.5343511 L11.9710109,5.18320611 C12.2039896,4.9389313 12.5922874,4.9389313 12.825266,5.18320611 C13.0582447,5.42748092 13.0582447,5.8346056 12.825266,6.07888041 L12.825266,6.07888041 Z" id="路径" fill="#FFFFFF"></path>
                </g>
            </g>
        </g>
    </g>
</svg>