<?xml version="1.0" encoding="UTF-8"?>
<svg width="18px" height="18px" viewBox="0 0 18 18" version="1.1" xmlns="http://www.w3.org/2000/svg" xmlns:xlink="http://www.w3.org/1999/xlink">
    <title>图标_事件_黑牌</title>
    <g id="页面-1" stroke="none" stroke-width="1" fill="none" fill-rule="evenodd">
        <g id="画板" transform="translate(-215.000000, -11.000000)">
            <g id="编组" transform="translate(215.000000, 11.000000)">
                <g id="编组" transform="translate(1.000000, 2.000000)">
                    <path d="M3,-1 L13,-1 C14.1045695,-1 15,-0.1045695 15,1 L15,13 C15,14.1045695 14.1045695,15 13,15 L3,15 C1.8954305,15 1,14.1045695 1,13 L1,1 C1,-0.1045695 1.8954305,-1 3,-1 Z" id="Rectangle-308" fill="#525252" transform="translate(8.000000, 7.000000) rotate(90.000000) translate(-8.000000, -7.000000) "></path>
                    <text id="var" font-family="PingFangSC-Regular, PingFang SC" font-size="9" font-weight="normal" line-spacing="12" fill="#FFFFFF">
                        <tspan x="2" y="11">var</tspan>
                    </text>
                </g>
            </g>
            <g id="1.图标/事件/红球备份-8" transform="translate(215.000000, 11.000000)">
                <g id="编组" transform="translate(1.000000, 2.000000)">
                    <path d="M3,-1 L13,-1 C14.1045695,-1 15,-0.1045695 15,1 L15,13 C15,14.1045695 14.1045695,15 13,15 L3,15 C1.8954305,15 1,14.1045695 1,13 L1,1 C1,-0.1045695 1.8954305,-1 3,-1 Z" id="Rectangle-308" fill="#525252" transform="translate(8.000000, 7.000000) rotate(90.000000) translate(-8.000000, -7.000000) "></path>
                    <text id="var" font-family="PingFangSC-Regular, PingFang SC" font-size="9" font-weight="normal" line-spacing="12" fill="#FFFFFF">
                        <tspan x="2" y="11">var</tspan>
                    </text>
                </g>
            </g>
        </g>
    </g>
</svg>