<?xml version="1.0" encoding="UTF-8"?>
<svg width="18px" height="18px" viewBox="0 0 18 18" version="1.1" xmlns="http://www.w3.org/2000/svg" xmlns:xlink="http://www.w3.org/1999/xlink">
    <title>图标_事件_绿球</title>
    <defs>
        <rect id="path-1" x="0" y="0" width="18" height="18"></rect>
        <rect id="path-3" x="0" y="0" width="18" height="18"></rect>
    </defs>
    <g id="页面-1" stroke="none" stroke-width="1" fill="none" fill-rule="evenodd">
        <g id="画板" transform="translate(-113.000000, -11.000000)">
            <g id="乌龙球" transform="translate(113.000000, 11.000000)">
                <mask id="mask-2" fill="white">
                    <use xlink:href="#path-1"></use>
                </mask>
                <g id="乌龙球-(Background/Mask)"></g>
                <g id="体育-足球" transform="translate(1.000000, 1.000000)" fill="#39906A">
                    <path d="M8,0 C12.4189522,0 16,3.58104781 16,8 C16,12.4189522 12.4189522,16 8,16 C3.58104781,16 0,12.3990021 0,7.99002471 C0,3.58104733 3.58104781,0 8,0 Z M9.90568669,1.94110037 L8.2199017,3.15805795 C8.12015109,3.23785845 7.98050008,3.23785844 7.88074946,3.16803301 L5.93561265,1.94110037 C5.82588697,1.88125 5.6862362,1.88125 5.59646064,1.95107544 L3.47177242,3.52713527 C3.3720218,3.60693576 3.33212155,3.71666152 3.35207168,3.82638721 L3.74109906,5.80144957 C3.76104918,5.92115032 3.72114893,6.04085078 3.62139832,6.11067621 L1.84583741,7.3675343 C1.73611173,7.44733479 1.69621148,7.56703572 1.72613667,7.68673646 L2.59396701,11.1780078 C2.62389219,11.3176587 2.75356806,11.4074347 2.89321893,11.4074347 L5.14758282,11.4074347 C5.27725862,11.4074347 5.39695933,11.4972101 5.43685957,11.6069358 L6.22488939,13.92115 C6.26478964,14.0508258 6.38449035,14.120652 6.51416614,14.120652 L9.57651021,14.120652 C9.71616107,14.120652 9.83586129,14.0209008 9.86578648,13.891225 L10.4742658,11.6169111 C10.504191,11.4872353 10.6238917,11.3874842 10.7635426,11.3874842 L13.2174078,11.3874842 C13.3570586,11.3874842 13.4867346,11.2877338 13.5166598,11.1480829 L14.3046896,7.65681107 C14.3246397,7.53711032 14.2847396,7.41740963 14.184989,7.34758419 L12.4393532,6.1007014 C12.3396026,6.04085102 12.2997015,5.91117527 12.3196517,5.79147452 L12.7186547,3.82638721 C12.7386048,3.70668646 12.6987044,3.57701059 12.5889788,3.51716021 L10.2448389,1.94110037 C10.1351133,1.86129988 9.99546224,1.86129988 9.90568669,1.94110037 Z M8.04125453,5.29419643 L10.5749198,7.1395829 L9.60733915,10.1121512 L6.47517015,10.1121512 L5.50758929,7.1395829 L8.04125453,5.29419643 Z" id="Union"></path>
                </g>
            </g>
            <g id="乌龙球" transform="translate(113.000000, 11.000000)">
                <mask id="mask-4" fill="white">
                    <use xlink:href="#path-3"></use>
                </mask>
                <g id="乌龙球-(Background/Mask)"></g>
                <g id="体育-足球" transform="translate(1.000000, 1.000000)" fill="#39906A">
                    <path d="M8,0 C12.4189522,0 16,3.58104781 16,8 C16,12.4189522 12.4189522,16 8,16 C3.58104781,16 0,12.3990021 0,7.99002471 C0,3.58104733 3.58104781,0 8,0 Z M9.90568669,1.94110037 L8.2199017,3.15805795 C8.12015109,3.23785845 7.98050008,3.23785844 7.88074946,3.16803301 L5.93561265,1.94110037 C5.82588697,1.88125 5.6862362,1.88125 5.59646064,1.95107544 L3.47177242,3.52713527 C3.3720218,3.60693576 3.33212155,3.71666152 3.35207168,3.82638721 L3.74109906,5.80144957 C3.76104918,5.92115032 3.72114893,6.04085078 3.62139832,6.11067621 L1.84583741,7.3675343 C1.73611173,7.44733479 1.69621148,7.56703572 1.72613667,7.68673646 L2.59396701,11.1780078 C2.62389219,11.3176587 2.75356806,11.4074347 2.89321893,11.4074347 L5.14758282,11.4074347 C5.27725862,11.4074347 5.39695933,11.4972101 5.43685957,11.6069358 L6.22488939,13.92115 C6.26478964,14.0508258 6.38449035,14.120652 6.51416614,14.120652 L9.57651021,14.120652 C9.71616107,14.120652 9.83586129,14.0209008 9.86578648,13.891225 L10.4742658,11.6169111 C10.504191,11.4872353 10.6238917,11.3874842 10.7635426,11.3874842 L13.2174078,11.3874842 C13.3570586,11.3874842 13.4867346,11.2877338 13.5166598,11.1480829 L14.3046896,7.65681107 C14.3246397,7.53711032 14.2847396,7.41740963 14.184989,7.34758419 L12.4393532,6.1007014 C12.3396026,6.04085102 12.2997015,5.91117527 12.3196517,5.79147452 L12.7186547,3.82638721 C12.7386048,3.70668646 12.6987044,3.57701059 12.5889788,3.51716021 L10.2448389,1.94110037 C10.1351133,1.86129988 9.99546224,1.86129988 9.90568669,1.94110037 Z M8.04125453,5.29419643 L10.5749198,7.1395829 L9.60733915,10.1121512 L6.47517015,10.1121512 L5.50758929,7.1395829 L8.04125453,5.29419643 Z" id="Union"></path>
                </g>
            </g>
        </g>
    </g>
</svg>