<?xml version="1.0" encoding="UTF-8"?>
<svg width="18px" height="18px" viewBox="0 0 18 18" version="1.1" xmlns="http://www.w3.org/2000/svg" xmlns:xlink="http://www.w3.org/1999/xlink">
    <title>图标_事件_黄红牌</title>
    <g id="页面-1" stroke="none" stroke-width="1" fill="none" fill-rule="evenodd">
        <g id="画板" transform="translate(-164.000000, -11.000000)">
            <g id="编组-3" transform="translate(164.000000, 11.000000)">
                <rect id="矩形" x="0" y="0" width="18" height="18"></rect>
                <g id="编组-4" transform="translate(1.000000, 1.000000)">
                    <path d="M6,0 L14,0 C15.1045695,-2.02906125e-16 16,0.8954305 16,2 L16,13 C16,14.1045695 15.1045695,15 14,15 L6,15 C4.8954305,15 4,14.1045695 4,13 L4,2 C4,0.8954305 4.8954305,-4.63227689e-16 6,0 Z" id="Rectangle-308" fill="#D80000"></path>
                    <path d="M2,1 L10,1 C11.1045695,1 12,1.8954305 12,3 L12,14 C12,15.1045695 11.1045695,16 10,16 L2,16 C0.8954305,16 -5.30863065e-16,15.1045695 0,14 L0,3 C-1.3527075e-16,1.8954305 0.8954305,1 2,1 Z" id="Rectangle-308" fill="#FFCB14"></path>
                </g>
            </g>
        </g>
    </g>
</svg>