<?xml version="1.0" encoding="UTF-8"?>
<svg width="18px" height="18px" viewBox="0 0 18 18" version="1.1" xmlns="http://www.w3.org/2000/svg" xmlns:xlink="http://www.w3.org/1999/xlink">
    <title>图标_事件_绿球禁球</title>
    <defs>
        <rect id="path-1" x="0" y="0" width="18" height="18"></rect>
    </defs>
    <g id="页面-1" stroke="none" stroke-width="1" fill="none" fill-rule="evenodd">
        <g id="画板" transform="translate(-137.000000, -11.000000)">
            <g id="编组-2" transform="translate(137.000000, 11.000000)">
                <g id="乌龙球">
                    <mask id="mask-2" fill="white">
                        <use xlink:href="#path-1"></use>
                    </mask>
                    <g id="乌龙球-(Background/Mask)"></g>
                    <g id="体育-足球" mask="url(#mask-2)" fill="#39906A">
                        <g transform="translate(1.000000, 1.000000)" id="Union">
                            <path d="M8,0 C12.4189522,0 16,3.58104781 16,8 C16,12.4189522 12.4189522,16 8,16 C3.58104781,16 0,12.3990021 0,7.99002471 C0,3.58104733 3.58104781,0 8,0 Z M9.90568669,1.94110037 L8.2199017,3.15805795 C8.12015109,3.23785845 7.98050008,3.23785844 7.88074946,3.16803301 L5.93561265,1.94110037 C5.82588697,1.88125 5.6862362,1.88125 5.59646064,1.95107544 L3.47177242,3.52713527 C3.3720218,3.60693576 3.33212155,3.71666152 3.35207168,3.82638721 L3.74109906,5.80144957 C3.76104918,5.92115032 3.72114893,6.04085078 3.62139832,6.11067621 L1.84583741,7.3675343 C1.73611173,7.44733479 1.69621148,7.56703572 1.72613667,7.68673646 L2.59396701,11.1780078 C2.62389219,11.3176587 2.75356806,11.4074347 2.89321893,11.4074347 L5.14758282,11.4074347 C5.27725862,11.4074347 5.39695933,11.4972101 5.43685957,11.6069358 L6.22488939,13.92115 C6.26478964,14.0508258 6.38449035,14.120652 6.51416614,14.120652 L9.57651021,14.120652 C9.71616107,14.120652 9.83586129,14.0209008 9.86578648,13.891225 L10.4742658,11.6169111 C10.504191,11.4872353 10.6238917,11.3874842 10.7635426,11.3874842 L13.2174078,11.3874842 C13.3570586,11.3874842 13.4867346,11.2877338 13.5166598,11.1480829 L14.3046896,7.65681107 C14.3246397,7.53711032 14.2847396,7.41740963 14.184989,7.34758419 L12.4393532,6.1007014 C12.3396026,6.04085102 12.2997015,5.91117527 12.3196517,5.79147452 L12.7186547,3.82638721 C12.7386048,3.70668646 12.6987044,3.57701059 12.5889788,3.51716021 L10.2448389,1.94110037 C10.1351133,1.86129988 9.99546224,1.86129988 9.90568669,1.94110037 Z M8.04125453,5.29419643 L10.5749198,7.1395829 L9.60733915,10.1121512 L6.47517015,10.1121512 L5.50758929,7.1395829 L8.04125453,5.29419643 Z"></path>
                        </g>
                    </g>
                </g>
                <g id="编组" transform="translate(10.000000, 10.000000)">
                    <path d="M0,0 L8,0 L8,8 L0,8 L0,0 Z" id="背景"></path>
                    <g id="关闭2-fill">
                        <path d="M3.5,0 C1.57024594,0 0,1.57000403 0,3.5 C0,5.42999597 1.57000403,7 3.5,7 C5.42975406,7 7,5.42999597 7,3.5 C7,1.57000403 5.42999597,0 3.5,0 Z" id="路径" fill="#525252" fill-rule="nonzero"></path>
                        <path d="M4.92775165,4.57800027 C5.02525198,4.67599784 5.02499664,4.8340008 4.92725441,4.93150114 C4.87851096,4.98000269 4.81475609,5.00450208 4.75075931,5.00450208 C4.6865072,5.00450208 4.62251042,4.98000268 4.57375353,4.93100389 L3.49875017,3.85274828 L2.42025266,4.91975541 C2.37150921,4.9677597 2.30799624,4.99200376 2.24449671,4.99200376 C2.18000269,4.99200376 2.11575058,4.96724902 2.06675178,4.91775298 C1.96974869,4.81950006 1.97050127,4.6614971 2.0687542,4.56425211 L3.14600188,3.49875016 L2.0727456,2.42199973 C1.97524527,2.32424405 1.97550061,2.16599919 2.07324284,2.06849885 C2.17099852,1.97074317 2.32898804,1.97125386 2.42674372,2.06899609 L3.50149173,3.14699636 L4.57998925,2.08000267 C4.67798683,1.98275768 4.83648703,1.98375216 4.93349012,2.08200509 C5.03073512,2.18025802 5.02974063,2.33850287 4.9314877,2.43550597 L3.85425346,3.50099449 L4.92775165,4.57800027 Z" id="路径" fill="#FFFFFF"></path>
                    </g>
                </g>
            </g>
        </g>
    </g>
</svg>