<?xml version="1.0" encoding="UTF-8"?>
<svg width="18px" height="18px" viewBox="0 0 18 18" version="1.1" xmlns="http://www.w3.org/2000/svg" xmlns:xlink="http://www.w3.org/1999/xlink">
    <title>图标_事件_换人</title>
    <g id="页面-1" stroke="none" stroke-width="1" fill="none" fill-rule="evenodd">
        <g id="画板" transform="translate(-191.000000, -11.000000)">
            <g id="换人" transform="translate(191.000000, 11.000000)">
                <rect id="矩形" x="0" y="0" width="18" height="18"></rect>
                <g id="编组-2" transform="translate(2.000000, 1.000000)" fill-rule="nonzero">
                    <path d="M10.1237496,15.7815739 L13.8332588,11.5880814 C14.2065991,11.1660311 13.9122092,10.4935014 13.3541225,10.4935014 L11.5784492,10.4935014 L11.5784492,0.655843839 C11.5784492,0.293631309 11.2898464,0 10.9338369,0 L9.6446123,0 C9.28860278,0 9,0.293631779 9,0.655844308 L9,15.3428377 C9,15.9439082 9.72854065,16.228346 10.1237496,15.7815739 Z" id="Union" fill="#39906A"></path>
                    <path d="M1.1237496,15.7815739 L4.83325885,11.5880814 C5.20659914,11.1660311 4.91220922,10.4935014 4.35412255,10.4935014 L2.57844919,10.4935014 L2.57844919,0.655843839 C2.57844919,0.293631309 2.28984642,0 1.9338369,0 L0.644612299,0 C0.288602777,0 0,0.293631779 0,0.655844308 L0,15.3428377 C0,15.9439082 0.728540646,16.228346 1.1237496,15.7815739 Z" id="Union" fill="#D80000" transform="translate(2.500000, 8.000000) rotate(180.000000) translate(-2.500000, -8.000000) "></path>
                </g>
            </g>
        </g>
    </g>
</svg>