<svg xmlns="http://www.w3.org/2000/svg" width="327" height="260" xmlns:v="https://vecta.io/nano"><defs><linearGradient x1="3.54609966%" y1="36.4130407%" x2="14.8936156%" y2="99.999999%" id="A"><stop stop-color="#39906a" offset="0%"/><stop stop-color="#39906a" stop-opacity="0" offset="100%"/></linearGradient><linearGradient x1="26.4948661%" y1="107.198994%" x2="66.8411516%" y2="5.43854134%" id="B"><stop stop-color="#fff" stop-opacity="0" offset="0%"/><stop stop-color="#754c24" offset="99%"/></linearGradient><linearGradient x1="26.9637462%" y1="101.65102%" x2="73.8670695%" y2="4.24085465%" id="C"><stop stop-color="#fff" stop-opacity="0" offset="0%"/><stop stop-color="#754c24" offset="99%"/></linearGradient><linearGradient x1="28.1021035%" y1="103.917125%" x2="72.1106121%" y2="6.50696018%" id="D"><stop stop-color="#fff" stop-opacity="0" offset="0%"/><stop stop-color="#754c24" offset="99%"/></linearGradient><linearGradient x1="26.9880022%" y1="11.386819%" x2="79.1573661%" y2="100%" id="E"><stop stop-color="#f8fbfa" stop-opacity=".354" offset="0%"/><stop stop-color="#dff2ea" offset="100%"/></linearGradient><linearGradient x1="48.5336758%" y1="4.1502925%" x2="48.5336776%" y2="100.000178%" id="F"><stop stop-color="#39906a" offset="5.86390495%"/><stop stop-color="#fff" offset="98.3663201%"/></linearGradient></defs><g fill="none" fill-rule="evenodd"><g fill-rule="nonzero"><path d="M308.456 188.383c-5.838 9.957-17.008 14.459-27.626 17.302-27.23 7.271-53.53 4.098-80.972 4.823-11.898.312-24.557 4.629-33.858 12.652s-17.681 17.421-27.875 24.041c-21.871 14.239-48.926 14.157-74.443 13.643-6.603-.119-13.279-.29-19.697-1.999-37.158-9.893-39.027-35.522-41.91-54.318a27.62 27.62 0 0 1-.166-1.174l-.111-.844a2.86 2.86 0 0 0-.064-.568c-.051-.222-.072-.451-.064-.678 0-.229-.074-.706-.092-1.064s-.074-.917-.101-1.43c0-.458-.046-.917-.055-1.385v-1.98-2.356c-.014-.664.014-1.329.083-1.99a1.47 1.47 0 0 0 0-.284c0-.568.074-1.137.12-1.705v-.504c.015-.368.049-.735.101-1.1.064-.697.147-1.394.23-2.091l.212-1.595.055-.422.239-1.577.295-1.834c.101-.642.212-1.192.322-1.834l.709-3.594.378-1.834.405-1.834.414-1.834 1.842-7.693.764-3.108.267-1.1.497-2.118.976-4.218.451-2.109.433-2.109.295-1.54.221-1.238a112.4 112.4 0 0 0 .847-5.428l.203-1.595a1.97 1.97 0 0 0 0-.33 9.05 9.05 0 0 1 .111-.99l.129-1.412a2.32 2.32 0 0 0 0-.358c0-.513.083-1.045.12-1.577v-.614c0-.468.055-.917.064-1.394a80.97 80.97 0 0 0 0-6.226 7.76 7.76 0 0 0-.092-1.458 88.22 88.22 0 0 0-2.247-13.497c-.847-3.576-1.842-7.188-2.892-10.801C3.088 84.561-1.249 70.881.335 57.623c2.763-21.253 5.722-34.52 22.62-44.799C41.722 1.418 64.035-1.498 85.574.657c1.648.165 3.297.358 4.936.578a85.76 85.76 0 0 1 20.775 5.162c10.516 4.291 19.743 11.525 29.017 18.393 11.382 8.435 23.123 16.504 35.914 22.005 17.496 7.491 46.979 2.226 71.24 9.214s42.169 31.948 52.648 48.91c2.716 4.49 4.88 9.29 6.446 14.294 3.766 11.626 4.973 24.398 5.93 36.795.93 11.003 1.483 22.996-4.024 32.375z" fill="url(#A)" opacity=".18"/><g transform="translate(27 6.1)"><path d="M119.353 165.739L4.783 98.071c-3.646-2.045-6.777-5.402-3.219-7.613l114.984-66.253c1.728-1.07 4.348-1.771 6.101-.752l120.269 69.782c3.646 2.115 4.303 8.027.637 10.148L134.474 165.63c-4.666 2.709-10.417 2.751-15.121.108z" fill="#1e9863"/><path d="M158.885 108.8L132 121.747l10.405 7.016L164 114.957c-1.997-1.274-3.06-4.901-5.115-6.157z" fill="url(#B)" opacity=".63" style="mix-blend-mode:multiply"/><path d="M117.766 79.853L94 92.591l10.165 7.225L119 88.681c-1.989-1.351.806-7.536-1.234-8.828z" fill="url(#C)" opacity=".43" style="mix-blend-mode:multiply"/><path d="M73.122 110.796L49 123.534l10.306 7.225L76 120.2c-2.017-1.293-.836-8.117-2.878-9.403z" fill="url(#D)" opacity=".427" style="mix-blend-mode:multiply"/><path fill="#5ea585" d="M74 139.068l122.433-72.191L223 82.315l-122.51 72.401z"/><path fill="#5ea586" d="M17 105.109l122.229-72.169L166 48.271 43.49 120.778z"/><path d="M189.847 51.905c.205 0 6.382 2.155 7.579 3.236 1.119 1.019 1.69 2.46 1.554 3.923-.159 1.249-4.047 8.676-4.047 9.313s.311 3.042.417 4.023-.47 3.042-1.323 3.823-2.42 2.105-2.645 1.468.298-4.372 0-4.66-1.025 1.199-1.025 1.199c0 .712.205 1.599-.159 1.793s-1.144-.831-1.197-1.518 2.202-5.347 2.374-6.321 1.984-7.302 1.64-8.12-3.379-1.805-3.379-1.805" fill="#ffc2a4"/><path d="M149 115.774v1.653s.632 1.498 2.773 1.343 4.004-1.857 6.063-2.415 4.421-.916 5.311-1.628.853-3.931.853-3.931" fill="#fff"/><path d="M165.513 83.846s-5.613 22.086-5.512 23.177c.125.611.493 1.141 1.017 1.461a2.14 2.14 0 0 0 1.739.224c1.305-.394 4.597-7.102 5.272-9.51s3.002-10 6.382-12.266-8.898-3.086-8.898-3.086zM175 89.162c1.183 1.013 2.67 1.593 4.221 1.646 2.783.195 17.267-.82 17.267-.82s1.151-3.532 0-4.112-13.721-2.031-13.721-2.031" fill="#ffc2a4"/><path d="M171.128 72.098s-.288 10.079 0 10.998 5.336 5.741 5.336 5.741L184 83.66l-3.487-11.793" fill="#484848"/><path d="M176.521 71.868c-.871.428-12.736 10.661-12.518 11.593s2.037 2.861 3.639 3.938 4.44 1.89 5.458 2.646a3.11 3.11 0 0 0 1.672.788s11.717-11.379 12.076-13.666c.203-1.759.203-3.534 0-5.293" fill="#555"/><path d="M171.394 45.043s-3.594-.629-4.753.931-2.84 9.715-2.621 9.715 5.269 1.786 5.269 1.786 1.243 5.716 1.391 7.068-.071 6.917-.071 6.917 5.559 1.93 9.661 2.358c2.514.226 5.033-.377 7.156-1.71l-.644-13.834 3.291.572s1.61-5.213.586-7.716c0 0-10.827-5.615-14.595-6.2" fill="#fff"/><path d="M168.793 44.159s-2.098-.396-2.622-2.022.16-3.429 1.938-3.541c0 0 .105-2.193 2.985-2.59s3.458.958 3.458.958.96-.509 2.154.621 1.612 5.12 1.04 6.606c-.497 1.05-1.193 1.977-2.043 2.722" fill="#0e0d0b"/><path d="M167 41.696a29.05 29.05 0 0 0 2.249 5.47c.712 1.139 2.728 2.847 4.266 2.738s2.728-4.101 2.728-4.101 1.198-1.746.579-2.348-1.87.326-1.87.326c-.956-.441-1.733-1.174-2.209-2.085-.626-1.401-2.788-.64-4.079.288S167 41.696 167 41.696z" fill="#ffc2a4"/><path d="M149.285 116.558c-.303-.516-.367-1.142-.177-1.712a2.02 2.02 0 0 1 1.163-1.242 18.68 18.68 0 0 0 4.479-2.41c1.573-1.296 2.704-2.053 3.373-2.889s.126-3.517.985-3.498 2.685.687 2.956 1.237-.733 2.351-.177 2.261 1.952-1.587 1.952-1.587c-.132.78-.132 1.578 0 2.358a6.19 6.19 0 0 1-.202 3.491c-.449 1.296-4.839 2.021-6.494 3.077s-4.75 2.708-6.627 1.943c-.511-.193-.945-.555-1.232-1.03z" fill="#444"/><path d="M201.445 102.52l1.683.291s1.639-.36 1.85-2.527-1.197-4.271-1.402-6.393-.16-4.542-.736-5.515S199 86.84 199 86.84" fill="#fff"/><path d="M200.759 101.57a1.97 1.97 0 0 1-.971-1.345 18.9 18.9 0 0 0-1.512-4.775c-.969-1.755-1.475-2.983-2.147-3.76s-3.282-.708-3.122-1.548 1.098-2.507 1.66-2.682 2.085 1.103 2.092.551-1.16-2.168-1.16-2.168c.709.259 1.456.393 2.209.395 1.132-.071 2.258.2 3.239.777 1.129.627 1.086 5.064 1.795 6.862s1.746 5.089.74 6.806a2.39 2.39 0 0 1-1.185.996c-.535.211-1.135.171-1.638-.109z" fill="#444"/><path d="M164.998 55.897l-4.474 3.655-5.292 4.956c-.818.335-3.087 0-3.924.811s-1.17 2.428-1.278 3.395.083 3.097.639 3.153 1.003-2.428 1.278-3.234 1.087-1.456 1.278-1.239-1.003 1.239-.805 1.858 1.08.254 1.604-.161a19.97 19.97 0 0 0 2.026-1.518 15.98 15.98 0 0 1 1.7-1.648c.262-.124 7.414-3.165 9.587-5.036A23.83 23.83 0 0 0 171 56.808l-6.002-.911z" fill="#ffc2a4"/><path fill="#bfc7ca" d="M140 58.85l.237 1.04 2.349-.183L144 57.699l-.198-.963-.608-.467-1.83-.372"/><path d="M137 68.439c.67.32 1.411.468 2.155.429.977-.145 3.045-1.391 3.52-2.499l1.847-4.325c.181-.501 2.175-2.373 2.396-3.224s.054-1.431-1.131-1.925" fill="#9d9d9d"/><path d="M127 54.958s11.945 3.855 13.202 3.932S142 56.05 142 56.05s-4.3-3.559-7.343-4.536-4.721-1.606-4.721-1.606" fill="#7d482f"/><path d="M140.145 59.402c.65.332 1.426.332 2.075 0 .906-.625.643-3.38 1.054-3.493s2.57.569 3.155.906c.422.274.638.764.553 1.25 0 .344-2.307 2.612-2.454 3.38s-1.632 4.542-2.801 5.367-3.592 1.562-4.26.625c-.681-.911-.609-2.162.173-2.993 1.194-1.489 2.048-3.208 2.506-5.042z" fill="#2d2b2f"/><path d="M118 79.11s.155-2.071.497-2.178a32.76 32.76 0 0 1 4.374 0c.208.084.101 1.446.101 1.446s-1.532 1.503-2.473 1.475a8.85 8.85 0 0 1-2.5-.743z" fill="#bfc7ca"/><path d="M118 36.834s1.258 13.365 5.132 14.948S127 39.059 127 39.059l-4.478-4.123" fill="#2d2b2f"/><path d="M124.465 61.111c.317-1.136 6.535-10.205 6.535-10.205l-10.291.624s-1.598 7.178-1.679 10.423c-.068 2.859 0 13.219 0 15.647 1.076.193 2.568.506 3.563-.094.97-2.247 2.263-8.601 2.263-10.273.012-1.897-.696-4.981-.392-6.123z" fill="#7d482f"/><path d="M113 86.798v2.115c.421.583 1.108.928 1.839.923 1.287 0 3.487-.461 4.063-1.096s1.728-2.851 2.317-3.331c.666-.511 1.264-1.103 1.777-1.761.037-.216-.172-1.797-.172-1.797" fill="#9d9d9d"/><path d="M118.302 79.032s-.885 2.524-1.87 3.395-3.74 3.524-3.404 4.744.966 1.937 2.493 1.569 3.067-.607 4.077-2.698 2.861-3.176 3.235-3.834 0-4.351 0-4.351-1.346 1.291-2.144 1.291-1.594-.034-2.387-.116zm6.077-41.953s-4.884 13.599-4.337 14.444 6.329 3.07 8.797 2.166 5.405-9.567 5.144-11.433-1.348-6.321-1.348-6.321l-8.257 1.145z" fill="#2d2b2f"/><path d="M122.606 10.256a28.83 28.83 0 0 0-3.668.412c-1.637.323-2.792-.361-4.302 1.899s-5.565 11.162-4.442 13.068 3.884 4.28 3.884 4.28 1.041 2.716 2.373 3.413 3.287-1.564 3.325-2.254-1.123-1.621-1.123-1.621.755.348.635-.234-2.538-1.678-2.538-1.678l-2.488-4.628 3.528-5.179 8.846 3.761s4.309 4.223 5.794 3.678 1.758-1.349 1.758-1.349l.85-1.779s3.769 4.394 3.649 5.375-2.373 8.908-3.306 9.37-2.031.696-2.722 1.387-2.031 1.33-1.504 2.197.812 1.849 1.447 1.969 1.904.981 2.538.348 2.323-4.236 2.323-4.236 5.159-7.053 5.508-10.295-2.335-10.333-5.508-12.416c-2.433-1.6-5.085-2.839-7.875-3.678-2.024-.589-4.144-3.083-4.144-3.083" fill="#7d482f"/><g fill="#12784b"><path d="M134 24.079c-1.757 1.492-3.094.076-3.713-2.529s1.745-8.105 1.745-8.105l-2.475-.841c-.507-.133-3.273 5.81-5.117 6.632s-2.908-.898-3.793-2.39c-.687-1.157-.309-4.425-.105-5.867l-1.374.234c-.526 1.296-2.11 5.311-2.166 6.676-.074 1.644 1.535 7.024 1.974 8.516s-.074 9.192-.427 10.311 4.814 3.585 8.106 3.161a24.31 24.31 0 0 0 6.615-2.2s-.879-4.261-1.238-5.532S134 24.079 134 24.079z"/><path d="M134.229 24.144l.841-1.51 1.883 2.857L141 19.576s-3.3-6.701-12.933-8.255-12.385-1.033-13.44.83l-3.496 6.192 5.262 3.241 1.613-3.241s7.01 10.698 11.202 9.515 5.021-3.713 5.021-3.713z"/></g><g fill="#131313"><path d="M128.391.381a3.29 3.29 0 0 0-3.371.179c-.871-.467-1.881-.585-2.833-.331a3.44 3.44 0 0 0-2.541 2.473c-.925.396-1.557 1.285-1.637 2.304s.403 2 1.254 2.542c.571.325 1.221.474 1.874.43a2.4 2.4 0 0 0 2.23-1.732l.117-.152a1.91 1.91 0 0 0 .713.112c.263.004.526-.034.778-.112.296.054.599.054.895 0a2.01 2.01 0 0 0 1.815.284c1.111-.406 1.947-1.355 2.224-2.526.34-1.375-.287-2.81-1.517-3.471z"/><path d="M121.359 6.996S119 7.296 119 5.431s2.042-3.006 2.042-3.006c.057-1.128.818-2.082 1.867-2.341 1.097-.27 2.246.116 2.988 1.004 0 0 .622-.965 2.359-.724s1.724 2.471 1.494 2.712c.611.215 1.078.737 1.245 1.389.043.77-.159 1.533-.573 2.171.166.658.126 1.355-.112 1.989-.405 1.024-2.073 2.354-2.073 2.354"/></g><path d="M121.096 12.229c1.189 2.994 4.509 1.587 6.493-.144a2.43 2.43 0 0 0 .354-.599s1.603-1.437.862-2.162-1.296.275-1.296.275-1.336-.497-1.336-1.276.247-1.276-1.176-1.383c-1.263-.096-3.948-1.683-4.997-.539.214 1.934.374 4 1.096 5.827z" fill="#7d482f"/><path fill="#fff" d="M48.366 93.828L60 92.909l-4.333-4.072-13.667.11"/><path d="M45.239 87.962s-.146 2.793 1.005 3.181 3.993.534 2.15 1.73-3.161.534-3.161.534c-1.031.969-1.365 2.429-.852 3.722.498 1.408.412 2.945-.24 4.294-1.624.757-2.343.49-3.327-1.501s-2.15-11.699-1.724-11.966 6.149.006 6.149.006z" fill="#2d2b2f"/><path d="M43 102.612c-.734.343-1.579.237-2.222-.279-.96-.894-1.105-5.368-1.984-6.971s-1.507-6.788.814-6.515" fill="#010005"/><path d="M67.026 81.85s6.322 16.578-3.66 12.258S45 81.85 45 81.85h22.026z" fill="#ff9e8b"/><path d="M66.076 55.897s4.264 6.34 5.869 6.895a59.75 59.75 0 0 1 6.419 3.318c.44.278 4.381 1.52 4.963 3.312s1.165 4.82 0 5.375.078-2.618-1.495-3.861.032 1.382-1.294 1.52-2.187-3.312-3.067-3.59a81.07 81.07 0 0 1-9.486-3.489C64.627 63.764 60 58.793 60 58.793m-26-4.892c-.86.403-6.888 4.404-8.47 6.128s-4.596 8.135-4.878 9.739-1.313 6.405 0 7.071 2.298 2.517 3.014 1.887-1.576-3.07-1.149-4.272.86 1.346 1.72 1.472-1.005-4.542-.571-5.077S29.982 62.312 34 60.444m20.09 17.413c.983.907 8.882 12.519 11.807 20.57S72 110.398 72 110.398s-1.96 7.819-3.407 6.155-7.093-10.269-12.302-20.98c0 0-8.635-4.813-13.291-10.925" fill="#f8c8b2"/><path d="M58.647 67.875s11.1 15.591 10.313 16.91-5.531 3.73-6.538 3.73-3.939-6.804-7.777-6.369-6.45 6.369-5.701 7.688c0 0-4.663-1.755-6.242-5.271s0-11.639 0-11.639" stroke="#f2f2f2" stroke-width="1.015" fill="#a03e24"/><path d="M53.947 47.232c.68.114 3.94-3.087 14.053 8.601l-3.715 5.705-4.896-3.309s-.77 5.293 0 6.833 3.305 4.849 2.843 5.952-6.982 6.617-11.775 6.833-7.97-3.049-11.441-2.415c0 0 3.433-4.19 3.433-7.277s.462-8.601.462-8.601-5.775.963-7.822 2.795L31 54.92s11.21-9.672 22.947-7.689z" fill="#aae1c9"/><path d="M66.234 97.82h.058l.467 1.162c3.017 7.95 6.241 11.809 6.241 11.809s-1.576 8.416-3.062 6.781C68.64 116.15 63.45 108.691 59 100.201a44.98 44.98 0 0 0 7.234-2.381z" fill="#fff"/><path d="M72.436 120.778c-2.031-1.027-3.53-2.866-4.127-5.061-1.001-3.699.582-9.253 2.558-10.958s7.298-1.381 7.129 3.186" fill="#2d2b2f"/><path d="M75.97 119.824c.635-1.26.922-2.671.83-4.083-.211-2.165 4.005-7.655 1.278-10.662-2.108-2.327-5.206-1.387-6.893 2.282s-1.833 11.972 1.278 13.054 3.507-.59 3.507-.59z" fill="#010005"/><path d="M46.158 39.239v-.093a3.07 3.07 0 0 1 .481-1.485c.819-1.089 2.937-1.466 4.225-1.633 1.637-.246 3.312-.008 4.812.687 1.669.817 1.444 2.437 1.019 3.879l-.919 3.136-5.912 4.182s-2.825-1.355-3.225-2.444a13.78 13.78 0 0 1-.481-6.229z" fill="#7d482f"/><path d="M54.994 41.934c0 .414.284 7.682-3.435 7.962s-4.292-4.151-4.292-4.151-1.859-1.942-1.074-2.435a1.2 1.2 0 0 1 1.503.262s2.137 2.575 1.696.998-.374-3.902 1.479-3.622 1.938 1.175 3.018.475 1.135-.505 1.105.511z" fill="#f8cdbc"/><ellipse fill="#39906a" cx="121.5" cy="124.771" rx="15.5" ry="3.993"/><g fill="#fff"><path d="M120.84 112.964l.124-.042-.964-3.123c1.654 1.51 2.723 3.618 3 5.917l-.068.072a24.96 24.96 0 0 0-2.092-2.824zm-1.907 8.625l-.048-.072c.988-.121 1.958-.369 2.891-.739v1.085c.084-.082.159-.174.224-.275-1.229 2.499-3.33 4.363-5.837 5.178l-.163-1.883 2.933-3.295zM113 107.802c2.203.084 4.312.785 6 1.996l-3.893-1.001a18.06 18.06 0 0 0-2.107-.996zm-6.828 2.558l-2.387 2.991-.785.44a9.75 9.75 0 0 1 4-4.991 14.76 14.76 0 0 0-.773 1.584l-.055-.024z"/><path d="M108 125.472a28.6 28.6 0 0 0 3.263-.702l3.569.878.168 1.769a10.25 10.25 0 0 1-6.718-.495h.186l-.469-1.45zm5.892-15.324l.055.053-4.584 1.593v-.066L107 110.326a16.26 16.26 0 0 1 1.036-2.206c1.419-.835 3.002-1.287 4.615-1.317.814.371 1.6.811 2.35 1.317l-1.108 2.028zm6.671 3.643a25.65 25.65 0 0 1 2.438 3.053l-.069.08-.913 3.937v.179a12.5 12.5 0 0 1-3.181.735l-1.838-2.59a27.42 27.42 0 0 0 1.063-4.673l2.5-.723zm-12.228 2.994l3.665 3.298-.411.143v3.82a26.49 26.49 0 0 1-3.216.724l-.118-.385-3.016-2.777a23.88 23.88 0 0 1-.231-3.95l3.328-.873z"/><path d="M108.796 112.421l4.978-1.625 3.226 3.187a28.19 28.19 0 0 1-.968 4.435v-.038l-4.195 1.399-3.837-3.35.796-4.009zm-4.966 4.413a22.87 22.87 0 0 0 .17 3.944h-1.211c-.89-2.087-1.032-4.433-.4-6.618l.606-.369.836 3.044z"/></g><g fill="#050505"><path d="M119.585 110.267v.1l-.17-.14z"/><path d="M103.138 113.669l-.138.445.626-.38.852 3.139c-.059 1.358 0 2.72.175 4.067h-1.253c1.02 2.355 2.855 4.234 5.148 5.273h.194l-.489-1.573a28.61 28.61 0 0 0 3.401-.767l3.72.96.175 1.934.301-.084-.169-1.856 3.031-3.223-.05-.071c1.023-.119 2.028-.364 2.994-.728v1.07a1.56 1.56 0 0 0 .232-.271c.923-1.797 1.284-3.843 1.033-5.859l-.075.077c-.705-1.07-1.484-2.087-2.33-3.043l.138-.045-1.071-3.358-.106-.09-4.015-1.244a17.36 17.36 0 0 0-2.173-1.238h-.501-.263c.842.363 1.654.794 2.43 1.289l-1.152 2.011.056.052-4.741 1.56v-.064l-2.443-1.373a15.55 15.55 0 0 1 1.071-2.159l-.545.335c-.295.54-.558 1.097-.789 1.67h-.05l-2.436 3.152-.789.393zm13.503 4.835c.491-1.59.847-3.22 1.065-4.873l2.505-.793c.891.996 1.708 2.061 2.443 3.184l-.069.084-.914 4.106v.193c-1.025.399-2.097.657-3.188.767l-1.841-2.669zm-4.491 1.083l-3.896-3.442.802-4.125 5.054-1.67 3.276 3.275c-.206 1.544-.535 3.069-.983 4.557v-.039l-4.253 1.444zm-7.371-2.269l3.344-.87 3.683 3.262-.413.142v3.777a26.88 26.88 0 0 1-3.232.716l-.119-.38-3.031-2.746c-.182-1.291-.256-2.596-.219-3.9h-.013z"/></g></g></g><ellipse fill="url(#E)" cx="313" cy="222.702" rx="14" ry="13.974"/><path d="M46.299 148.696c1.442-4.156 5.02-7.427 9.646-8.246.843-.149 1.682-.21 2.506-.189-3.038 1.341-5.232 4.352-6.002 8.017a12.44 12.44 0 0 1 7.947-2.856 12.53 12.53 0 0 1 2.505.252c-4.545 1.112-8.018 5.783-8.33 11.496h-4.2-6.676c-.312-5.712-3.785-10.384-8.33-11.496a12.53 12.53 0 0 1 2.505-.252 12.45 12.45 0 0 1 8.429 3.274z" fill="url(#F)"/></g></svg>