<svg width="50" height="42" viewBox="0 0 50 42" fill="none" xmlns="http://www.w3.org/2000/svg">
<path d="M0 0H50V26.7189C50 27.5782 49.5341 28.3699 48.783 28.7872L26.1491 41.3616C25.4345 41.7586 24.5655 41.7586 23.8509 41.3616L1.217 28.7872C0.46586 28.3699 0 27.5782 0 26.7189V0Z" fill="#999999"/>
<path d="M7.91756 22.3019C7.86423 22.3019 7.82156 22.2859 7.78956 22.2539C7.75756 22.2113 7.7469 22.1633 7.75756 22.1099L9.08556 11.2939C9.09623 11.2406 9.11756 11.1979 9.14956 11.1659C9.19223 11.1233 9.24023 11.1019 9.29356 11.1019H11.1176C11.1709 11.1019 11.2136 11.1233 11.2456 11.1659C11.2776 11.1979 11.2882 11.2406 11.2776 11.2939L10.1736 20.2859C10.1736 20.3393 10.1949 20.3659 10.2376 20.3659H15.3096C15.4269 20.3659 15.4856 20.4299 15.4856 20.5579L15.2936 22.1099C15.2829 22.1633 15.2562 22.2113 15.2136 22.2539C15.1816 22.2859 15.1389 22.3019 15.0856 22.3019H7.91756ZM19.9766 22.4299C19.1126 22.4299 18.3979 22.1953 17.8326 21.7259C17.2672 21.2566 16.9206 20.6166 16.7926 19.8059C16.7499 19.5819 16.7286 19.3046 16.7286 18.9739C16.7286 18.7073 16.7446 18.4406 16.7766 18.1739C16.8619 17.5019 17.0059 16.9366 17.2086 16.4779C17.5499 15.6886 18.0566 15.0699 18.7286 14.6219C19.4006 14.1739 20.1686 13.9499 21.0326 13.9499C21.8859 13.9499 22.5846 14.1739 23.1286 14.6219C23.6726 15.0593 24.0192 15.6726 24.1686 16.4619C24.2326 16.7606 24.2646 17.0913 24.2646 17.4539C24.2646 17.6886 24.2486 17.9179 24.2166 18.1419C24.1526 18.6753 24.0139 19.2139 23.8006 19.7579C23.4699 20.5899 22.9686 21.2459 22.2966 21.7259C21.6246 22.1953 20.8512 22.4299 19.9766 22.4299ZM20.2166 20.4939C20.5579 20.4939 20.8566 20.3873 21.1126 20.1739C21.3792 19.9606 21.5926 19.6673 21.7526 19.2939C21.8806 18.9419 21.9659 18.5686 22.0086 18.1739C22.0406 17.9179 22.0566 17.6779 22.0566 17.4539C22.0566 16.9633 21.9446 16.5793 21.7206 16.3019C21.4966 16.0246 21.1766 15.8859 20.7606 15.8859C20.4192 15.8859 20.1152 15.9873 19.8486 16.1899C19.5926 16.3926 19.3899 16.6753 19.2406 17.0379C19.1232 17.2939 19.0379 17.6726 18.9846 18.1739C18.9526 18.4406 18.9366 18.7019 18.9366 18.9579C18.9366 19.4273 19.0486 19.8006 19.2726 20.0779C19.4966 20.3553 19.8112 20.4939 20.2166 20.4939ZM28.2812 22.4139C27.2999 22.4139 26.5265 22.2219 25.9612 21.8379C25.3959 21.4433 25.1132 20.9259 25.1132 20.2859C25.1132 20.1793 25.1185 20.0939 25.1292 20.0299L25.1452 19.8699C25.1559 19.8166 25.1772 19.7739 25.2092 19.7419C25.2519 19.6993 25.2999 19.6779 25.3532 19.6779H27.0812C27.1345 19.6779 27.1772 19.6993 27.2092 19.7419C27.2412 19.7739 27.2519 19.8166 27.2412 19.8699V19.8859C27.2092 20.1206 27.3105 20.3233 27.5452 20.4939C27.7799 20.6539 28.0892 20.7339 28.4732 20.7339C28.8359 20.7339 29.1345 20.6593 29.3692 20.5099C29.6145 20.3499 29.7372 20.1526 29.7372 19.9179C29.7372 19.7473 29.6465 19.6193 29.4652 19.5339C29.2839 19.4379 29.0065 19.3419 28.6332 19.2459C28.1639 19.1073 27.7959 18.9846 27.5292 18.8779C26.9532 18.6646 26.4945 18.4086 26.1532 18.1099C25.8119 17.8113 25.6412 17.3899 25.6412 16.8459C25.6412 16.2699 25.7959 15.7633 26.1052 15.3259C26.4145 14.8886 26.8412 14.5526 27.3852 14.3179C27.9292 14.0833 28.5425 13.9659 29.2252 13.9659C30.1532 13.9659 30.8839 14.1793 31.4172 14.6059C31.9612 15.0219 32.2332 15.5713 32.2332 16.2539C32.2332 16.3926 32.2279 16.4939 32.2172 16.5579C32.2065 16.6113 32.1799 16.6593 32.1372 16.7019C32.1052 16.7339 32.0625 16.7499 32.0092 16.7499H30.3452C30.2919 16.7499 30.2492 16.7339 30.2172 16.7019C30.1852 16.6593 30.1745 16.6113 30.1852 16.5579C30.2065 16.3233 30.1105 16.1259 29.8972 15.9659C29.6945 15.8059 29.4012 15.7259 29.0172 15.7259C28.6545 15.7259 28.3505 15.7953 28.1052 15.9339C27.8705 16.0726 27.7532 16.2646 27.7532 16.5099C27.7532 16.7019 27.8545 16.8513 28.0572 16.9579C28.2599 17.0539 28.5905 17.1606 29.0492 17.2779C29.4332 17.3739 29.7052 17.4486 29.8652 17.5019C30.5159 17.7046 31.0279 17.9659 31.4012 18.2859C31.7745 18.5953 31.9612 19.0326 31.9612 19.5979C31.9612 19.7259 31.9559 19.8273 31.9452 19.9019C31.8385 20.6913 31.4545 21.3099 30.7932 21.7579C30.1319 22.1953 29.2945 22.4139 28.2812 22.4139ZM40.5741 17.3419C40.5847 17.6726 40.5527 18.1259 40.4781 18.7019C40.4461 18.8299 40.3714 18.8939 40.2541 18.8939H35.4541C35.4007 18.8939 35.3741 18.9206 35.3741 18.9739C35.3847 19.2086 35.4167 19.4219 35.4701 19.6139C35.6834 20.2113 36.1954 20.5099 37.0061 20.5099C37.6567 20.4993 38.2167 20.2219 38.6861 19.6779C38.7714 19.5606 38.8514 19.5499 38.9261 19.6459L39.9181 20.7819C39.9501 20.8246 39.9661 20.8673 39.9661 20.9099C39.9661 20.9633 39.9447 21.0113 39.9021 21.0539C39.5074 21.4913 39.0221 21.8326 38.4461 22.0779C37.8807 22.3126 37.2781 22.4299 36.6381 22.4299C35.7527 22.4299 35.0274 22.2219 34.4621 21.8059C33.8967 21.3899 33.5234 20.8086 33.3421 20.0619C33.2567 19.7633 33.2141 19.3846 33.2141 18.9259C33.2141 18.6699 33.2301 18.3979 33.2621 18.1099C33.3047 17.5126 33.4487 16.9473 33.6941 16.4139C34.0247 15.6566 34.5154 15.0539 35.1661 14.6059C35.8274 14.1579 36.5634 13.9339 37.3741 13.9339C38.4087 13.9339 39.1981 14.2433 39.7421 14.8619C40.2861 15.4806 40.5634 16.3073 40.5741 17.3419ZM37.1501 15.8859C36.4887 15.8859 36.0194 16.2006 35.7421 16.8299C35.6567 17.0433 35.5981 17.2139 35.5661 17.3419C35.5661 17.3953 35.5874 17.4219 35.6301 17.4219H38.3181C38.3714 17.4219 38.3981 17.3953 38.3981 17.3419C38.3981 17.2139 38.3874 17.0646 38.3661 16.8939C38.3127 16.5739 38.1794 16.3286 37.9661 16.1579C37.7634 15.9766 37.4914 15.8859 37.1501 15.8859Z" fill="#FAFAFA"/>
</svg>
