<svg width="50" height="42" viewBox="0 0 50 42" fill="none" xmlns="http://www.w3.org/2000/svg">
<path d="M0 0H50V26.7189C50 27.5782 49.5341 28.3699 48.783 28.7872L26.1491 41.3616C25.4345 41.7586 24.5655 41.7586 23.8509 41.3616L1.217 28.7872C0.46586 28.3699 0 27.5782 0 26.7189V0Z" fill="#333333"/>
<path d="M7.28475 22.3019C7.23142 22.3019 7.18875 22.2859 7.15675 22.2539C7.12475 22.2113 7.11408 22.1633 7.12475 22.1099L8.45275 11.2939C8.46342 11.2406 8.48475 11.1979 8.51675 11.1659C8.55942 11.1233 8.60742 11.1019 8.66075 11.1019H12.5488C13.6154 11.1019 14.4634 11.3686 15.0928 11.9019C15.7221 12.4246 16.0368 13.1286 16.0368 14.0139C16.0368 14.1206 16.0261 14.2806 16.0048 14.4939L15.4608 18.9099C15.3861 19.5819 15.1568 20.1739 14.7728 20.6859C14.3888 21.1979 13.8821 21.5979 13.2528 21.8859C12.6341 22.1633 11.9408 22.3019 11.1727 22.3019H7.28475ZM9.54075 20.2859C9.54075 20.3393 9.56208 20.3659 9.60475 20.3659H11.4928C11.9728 20.3659 12.3781 20.2006 12.7088 19.8699C13.0394 19.5393 13.2421 19.0966 13.3168 18.5419L13.7808 14.8619C13.7914 14.7873 13.7968 14.6859 13.7968 14.5579C13.7968 14.0886 13.6688 13.7206 13.4128 13.4539C13.1674 13.1766 12.8208 13.0379 12.3728 13.0379H10.5008C10.4794 13.0379 10.4581 13.0486 10.4368 13.0699C10.4261 13.0806 10.4208 13.0966 10.4208 13.1179L9.54075 20.2859ZM21.5349 13.9659C21.9082 13.9659 22.1962 14.0406 22.3989 14.1899C22.4842 14.2326 22.5055 14.3126 22.4629 14.4299L21.9189 16.2539C21.8869 16.3819 21.8069 16.4193 21.6789 16.3659C21.5402 16.3126 21.3589 16.2859 21.1349 16.2859C21.0602 16.2859 20.9482 16.2966 20.7989 16.3179C20.4255 16.3499 20.0895 16.4939 19.7909 16.7499C19.5029 17.0059 19.3375 17.3366 19.2949 17.7419L18.7509 22.1099C18.7402 22.1633 18.7135 22.2113 18.6709 22.2539C18.6389 22.2859 18.5962 22.3019 18.5429 22.3019H16.7349C16.6815 22.3019 16.6389 22.2859 16.6069 22.2539C16.5749 22.2113 16.5642 22.1633 16.5749 22.1099L17.5349 14.2699C17.5455 14.2166 17.5669 14.1739 17.5989 14.1419C17.6415 14.0993 17.6895 14.0779 17.7429 14.0779H19.5509C19.6042 14.0779 19.6469 14.0993 19.6789 14.1419C19.7109 14.1739 19.7215 14.2166 19.7109 14.2699L19.6469 14.8779C19.6362 14.9099 19.6415 14.9313 19.6629 14.9419C19.6842 14.9526 19.7055 14.9473 19.7269 14.9259C20.2069 14.2859 20.8095 13.9659 21.5349 13.9659ZM28.057 14.2699C28.0677 14.2166 28.089 14.1739 28.121 14.1419C28.1637 14.0993 28.2117 14.0779 28.265 14.0779H30.089C30.1423 14.0779 30.185 14.0993 30.217 14.1419C30.249 14.1739 30.2597 14.2166 30.249 14.2699L29.289 22.1099C29.2783 22.1633 29.2517 22.2113 29.209 22.2539C29.177 22.2859 29.1343 22.3019 29.081 22.3019H27.257C27.2037 22.3019 27.161 22.2859 27.129 22.2539C27.097 22.2113 27.0863 22.1633 27.097 22.1099L27.177 21.4219C27.1877 21.3793 27.1823 21.3579 27.161 21.3579C27.1397 21.3473 27.1183 21.3579 27.097 21.3899C26.585 22.0833 25.8917 22.4299 25.017 22.4299C24.3343 22.4299 23.753 22.2166 23.273 21.7899C22.793 21.3526 22.4997 20.7659 22.393 20.0299C22.361 19.8059 22.345 19.5766 22.345 19.3419C22.345 19.0219 22.3717 18.6326 22.425 18.1739C22.5317 17.3419 22.7023 16.6593 22.937 16.1259C23.225 15.4859 23.6517 14.9633 24.217 14.5579C24.793 14.1526 25.4383 13.9499 26.153 13.9499C27.0063 13.9499 27.5877 14.2593 27.897 14.8779C27.9183 14.9099 27.9343 14.9259 27.945 14.9259C27.9663 14.9259 27.9823 14.9046 27.993 14.8619L28.057 14.2699ZM27.225 19.5499C27.3103 19.3899 27.3797 19.2139 27.433 19.0219C27.4863 18.8299 27.5343 18.5579 27.577 18.2059C27.6197 17.9179 27.641 17.6673 27.641 17.4539C27.641 17.2726 27.609 17.0539 27.545 16.7979C27.4917 16.5206 27.369 16.3019 27.177 16.1419C26.985 15.9713 26.7397 15.8859 26.441 15.8859C26.1317 15.8859 25.8543 15.9713 25.609 16.1419C25.3743 16.3126 25.193 16.5366 25.065 16.8139C24.8943 17.1339 24.777 17.5926 24.713 18.1899C24.6703 18.4886 24.649 18.7499 24.649 18.9739C24.649 19.1766 24.6757 19.3686 24.729 19.5499C24.7823 19.8379 24.9103 20.0673 25.113 20.2379C25.3157 20.4086 25.5717 20.4939 25.881 20.4939C26.1903 20.4939 26.457 20.4086 26.681 20.2379C26.9157 20.0673 27.097 19.8379 27.225 19.5499ZM32.855 22.3019C32.7483 22.3019 32.6843 22.2486 32.663 22.1419L31.383 14.2859V14.2539C31.383 14.2006 31.399 14.1579 31.431 14.1259C31.4737 14.0833 31.5217 14.0619 31.575 14.0619H33.447C33.575 14.0619 33.6443 14.1153 33.655 14.2219L34.167 19.0539C34.1777 19.0859 34.1937 19.1019 34.215 19.1019C34.2363 19.1019 34.2523 19.0859 34.263 19.0539L36.023 14.2219C36.0657 14.1153 36.1457 14.0619 36.263 14.0619H37.895C38.0123 14.0619 38.0763 14.1153 38.087 14.2219L38.711 19.0699C38.7217 19.1019 38.7377 19.1179 38.759 19.1179C38.7803 19.1179 38.7963 19.1019 38.807 19.0699L40.615 14.2219C40.6577 14.1153 40.7377 14.0619 40.855 14.0619L42.711 14.0939C42.775 14.0939 42.8177 14.1153 42.839 14.1579C42.8603 14.1899 42.8603 14.2379 42.839 14.3019L39.607 22.1419C39.575 22.2486 39.5057 22.3019 39.399 22.3019H37.511C37.4043 22.3019 37.3403 22.2486 37.319 22.1419L36.647 17.8539C36.647 17.8219 36.6363 17.8059 36.615 17.8059C36.5937 17.8059 36.5723 17.8219 36.551 17.8539L34.967 22.1419C34.935 22.2486 34.8603 22.3019 34.743 22.3019H32.855Z" fill="#FAFAFA"/>
</svg>
