<svg width="50" height="42" viewBox="0 0 50 42" fill="none" xmlns="http://www.w3.org/2000/svg">
<path d="M0 0H50V26.7189C50 27.5782 49.5341 28.3699 48.783 28.7872L26.1491 41.3616C25.4345 41.7586 24.5655 41.7586 23.8509 41.3616L1.217 28.7872C0.46586 28.3699 0 27.5782 0 26.7189V0Z" fill="#D80000"/>
<path d="M14.5166 22.3019C14.3992 22.3019 14.3352 22.2486 14.3246 22.1419L12.9006 11.3099V11.2779C12.9006 11.1606 12.9592 11.1019 13.0766 11.1019H15.0126C15.1192 11.1019 15.1779 11.1553 15.1886 11.2619L15.8606 17.7739C15.8712 17.8166 15.8872 17.8379 15.9086 17.8379C15.9299 17.8379 15.9459 17.8166 15.9566 17.7739L18.1806 11.2779C18.2339 11.1606 18.3086 11.1019 18.4046 11.1019H20.2926C20.4099 11.1019 20.4739 11.1553 20.4846 11.2619L21.2366 17.7739C21.2366 17.8059 21.2472 17.8273 21.2686 17.8379C21.3006 17.8379 21.3219 17.8166 21.3326 17.7739L23.5566 11.2779C23.6099 11.1606 23.6846 11.1019 23.7806 11.1019H25.6046C25.7432 11.1019 25.7912 11.1713 25.7486 11.3099L21.8766 22.1419C21.8339 22.2486 21.7539 22.3019 21.6366 22.3019H19.7966C19.6899 22.3019 19.6312 22.2486 19.6206 22.1419L18.8846 15.2139C18.8739 15.1713 18.8579 15.1499 18.8366 15.1499C18.8259 15.1499 18.8099 15.1713 18.7886 15.2139L16.4686 22.1259C16.4366 22.2433 16.3619 22.3019 16.2446 22.3019H14.5166ZM27.8859 13.1499C27.5659 13.1499 27.3046 13.0486 27.1019 12.8459C26.8993 12.6433 26.7979 12.3819 26.7979 12.0619C26.7979 11.6459 26.9313 11.3046 27.1979 11.0379C27.4753 10.7606 27.8059 10.6219 28.1899 10.6219C28.5206 10.6219 28.7819 10.7179 28.9739 10.9099C29.1766 11.1019 29.2779 11.3633 29.2779 11.6939C29.2779 12.0993 29.1393 12.4459 28.8619 12.7339C28.5953 13.0113 28.2699 13.1499 27.8859 13.1499ZM25.8379 22.3019C25.7206 22.3019 25.6619 22.2379 25.6619 22.1099L26.6379 14.2539C26.6486 14.2006 26.6699 14.1579 26.7019 14.1259C26.7446 14.0833 26.7926 14.0619 26.8459 14.0619H28.6539C28.7073 14.0619 28.7499 14.0833 28.7819 14.1259C28.8139 14.1579 28.8246 14.2006 28.8139 14.2539L27.8539 22.1099C27.8433 22.1633 27.8166 22.2113 27.7739 22.2539C27.7419 22.2859 27.6993 22.3019 27.6459 22.3019H25.8379ZM34.7191 13.9499C35.4657 13.9499 36.0577 14.1633 36.4951 14.5899C36.9324 15.0166 37.1511 15.6086 37.1511 16.3659C37.1511 16.4619 37.1404 16.6273 37.1191 16.8619L36.4791 22.1099C36.4684 22.1633 36.4417 22.2113 36.3991 22.2539C36.3671 22.2859 36.3244 22.3019 36.2711 22.3019H34.4631C34.3457 22.3019 34.2871 22.2379 34.2871 22.1099L34.8791 17.3259C34.8897 17.2726 34.8951 17.1873 34.8951 17.0699C34.8951 16.7179 34.7937 16.4353 34.5911 16.2219C34.3884 15.9979 34.1217 15.8859 33.7911 15.8859C33.4071 15.8859 33.0817 16.0193 32.8151 16.2859C32.5484 16.5419 32.3884 16.8886 32.3351 17.3259L31.7431 22.1099C31.7324 22.1633 31.7057 22.2113 31.6631 22.2539C31.6311 22.2859 31.5884 22.3019 31.5351 22.3019H29.7271C29.6737 22.3019 29.6311 22.2859 29.5991 22.2539C29.5671 22.2113 29.5564 22.1633 29.5671 22.1099L30.5271 14.2699C30.5377 14.2166 30.5591 14.1739 30.5911 14.1419C30.6337 14.0993 30.6817 14.0779 30.7351 14.0779H32.5431C32.5964 14.0779 32.6391 14.0993 32.6711 14.1419C32.7031 14.1739 32.7137 14.2166 32.7031 14.2699L32.6391 14.8299C32.6391 14.8619 32.6444 14.8833 32.6551 14.8939C32.6764 14.9046 32.6977 14.8993 32.7191 14.8779C33.1991 14.2593 33.8657 13.9499 34.7191 13.9499Z" fill="#FAFAFA"/>
</svg>
