<?xml version="1.0" encoding="UTF-8"?>
<svg width="115px" height="115px" viewBox="0 0 115 115" version="1.1" xmlns="http://www.w3.org/2000/svg" xmlns:xlink="http://www.w3.org/1999/xlink">
    <title>形状</title>
    <g id="h5-专家模块" stroke="none" stroke-width="1" fill="none" fill-rule="evenodd" fill-opacity="0.05">
        <g id="h5-专家模块-高命中：" transform="translate(-238.000000, -260.000000)" fill="#39906A" fill-rule="nonzero">
            <g id="编组-16" transform="translate(16.000000, 198.000000)">
                <path d="M281.5,66 L288,62.6666667 C285.5625,62.6666667 283.9375,62 281.5,62 L275,62 L281.5,66 Z M236.645161,101.824561 L252.903226,108 L279.225806,90.245614 L280,72.4912281 L268.387097,64 C253.677419,67.0877193 240.516129,76.3508772 232,88.7017544 L236.645161,101.824561 Z M280.888889,95 L256,111.590164 L264.555556,140.245902 L294.888889,141 L305,113.098361 L280.888889,95 Z M283,72.3448276 L283,89.7931034 L307.533333,108 L324.4,102.689655 L329,90.5517241 C321.333333,77.6551724 309.066667,68.5517241 294.5,64 L283,72.3448276 Z M231,102.428571 L229.125,96 C227.875,98.8571429 226.625,102.428571 226,106 L231,102.428571 L231,102.428571 Z M335,107 L334,102 L332,105.571429 L335,107 Z M317,165 L309.307692,165 L307,172 C310.846154,170.444444 313.923077,168.111111 317,165 Z M326.142857,109 L309.857143,113.59375 L299,143.453125 L309.081633,158 L322.265306,158 C331.571429,148.046875 337,135.03125 337,121.25 L337,117.421875 L326.142857,109 Z M248.938561,156.230769 L260,143.153846 L250.518767,113.153846 L233.136505,107 L222.075066,114.692308 L222.075066,119.307692 C221.284963,133.153846 226.815683,146.230769 234.716711,157 L248.938561,156.230769 L248.938561,156.230769 Z M241,161 C244.333333,164.111111 247.666667,166.444444 251,168 L248.5,161 L241,161 L241,161 Z M304,159.95 L295,146.775 L263.5,146 L253,159.95 L257.5,172.35 C264.25,175.45 271,177 278.5,177 C286,177 292.75,176.225 299.5,173.125 L304,159.95 Z" id="形状"></path>
            </g>
        </g>
    </g>
</svg>