<?xml version="1.0" encoding="UTF-8"?>
<svg width="12px" height="12px" viewBox="0 0 12 12" version="1.1" xmlns="http://www.w3.org/2000/svg" xmlns:xlink="http://www.w3.org/1999/xlink">
    <title>图标_列表集锦</title>
    <g id="web-比赛列表调整" stroke="none" stroke-width="1" fill="none" fill-rule="evenodd">
        <g id="web-match列表调整" transform="translate(-1132.000000, -216.000000)">
            <g id="比赛比列页/卡片/直播集锦" transform="translate(470.000000, 186.000000)">
                <g id="比赛比列页/卡片/直播集锦/直播按钮备份" transform="translate(662.000000, 28.000000)">
                    <g id="编组" transform="translate(0.000000, 2.000000)">
                        <rect id="矩形" x="0" y="0" width="12" height="12"></rect>
                        <path d="M11.1134652,5.46031746 C11.3128965,5.2584127 11.383427,4.96 11.2970879,4.68444444 C11.2119648,4.40761905 10.9869966,4.21079365 10.7121707,4.16888889 L8.07092302,3.76761905 C7.96755927,3.75238095 7.87878806,3.68507937 7.83257838,3.58730159 L6.65058357,1.08825397 C6.52776312,0.827936508 6.27847409,0.666666667 6,0.666666667 C5.72152591,0.666666667 5.47223688,0.827936508 5.34941643,1.08952381 L4.16742162,3.58857143 C4.12121194,3.68507937 4.03244073,3.75365079 3.92907698,3.76888889 L1.28782931,4.17015873 C1.01300335,4.21206349 0.789251249,4.41015873 0.702912121,4.68571429 C0.616572993,4.96126984 0.687103548,5.2584127 0.886534772,5.4615873 L2.79815602,7.40825397 C2.87233471,7.4831746 2.90638394,7.59365079 2.88935932,7.70031746 L2.43820698,10.4469841 C2.39078126,10.7326984 2.50144127,11.0171429 2.72640942,11.1873016 C2.85409404,11.2838095 3.00245142,11.3333333 3.15202484,11.3333333 C3.26754902,11.3333333 3.38307321,11.304127 3.49008508,11.2457143 L5.85285867,9.94793651 C5.94527802,9.89714286 6.05472198,9.89714286 6.14714133,9.94793651 L8.50991492,11.2431746 C8.75555582,11.3790476 9.04862243,11.3574603 9.27359058,11.1860317 C9.49855873,11.015873 9.60921874,10.7314286 9.56179302,10.4457143 L9.11064068,7.69904762 C9.09361606,7.59238095 9.12766529,7.4831746 9.20184398,7.40698413 L11.1134652,5.46031746 Z" id="路径" fill="#A30B0B" fill-rule="nonzero"></path>
                        <path d="M8.46509389,5.33333333 C8.45610656,5.3320715 8.44840315,5.33080967 8.44069973,5.32954784 L8.42657679,5.32828601 L8.42529289,5.32828601 L6.9616434,5.11882229 C6.82683357,5.09989485 6.7112823,5.01661409 6.65093885,4.89674027 L6.03851709,3.676551 L6.0410849,3.67528917 C6.01540684,3.63995794 6,3.59705573 6,3.55036803 C6,3.43049422 6.09886054,3.33333333 6.22083133,3.33333333 C6.26961964,3.33333333 6.31327235,3.34847529 6.34922163,3.37497371 L6.85764725,4.38696109 C6.88974482,4.45005258 6.92954582,4.50683491 6.97576633,4.55856993 C7.05151661,4.66961094 7.1722035,4.74784437 7.30829722,4.77055731 C7.34938212,4.7831756 7.39046702,4.79327024 7.43411972,4.79957939 L8.5536832,4.95983176 C8.62044616,4.9913775 8.66666667,5.0595163 8.66666667,5.13648791 C8.66666667,5.24374343 8.57679345,5.33333333 8.46509389,5.33333333 L8.46509389,5.33333333 Z" id="路径" fill="#FFFFFF" fill-rule="nonzero"></path>
                    </g>
                </g>
            </g>
        </g>
    </g>
</svg>