<svg width="40" height="30" viewBox="0 0 40 30" fill="none" xmlns="http://www.w3.org/2000/svg">
<path d="M0 0H40V18.9054C40 19.6245 39.5925 20.2815 38.9483 20.6011L20.8411 29.5828C20.3112 29.8456 19.6888 29.8456 19.1589 29.5828L1.05173 20.6011C0.407504 20.2815 0 19.6245 0 18.9054V0Z" fill="#D80000"/>
<path d="M15.3211 6.31509C15.3318 6.26176 15.3531 6.21909 15.3851 6.18709C15.4278 6.14442 15.4758 6.12309 15.5291 6.12309H17.3531C17.4065 6.12309 17.4491 6.14442 17.4811 6.18709C17.5131 6.21909 17.5238 6.26176 17.5131 6.31509L16.1851 17.1311C16.1745 17.1844 16.1478 17.2324 16.1051 17.2751C16.0731 17.3071 16.0305 17.3231 15.9771 17.3231H14.1531C14.0998 17.3231 14.0571 17.3071 14.0251 17.2751C13.9931 17.2324 13.9825 17.1844 13.9931 17.1311L14.5371 12.7151C14.5371 12.6618 14.5158 12.6351 14.4731 12.6351H11.0331C10.9798 12.6351 10.9531 12.6618 10.9531 12.7151L10.4091 17.1311C10.3985 17.1844 10.3718 17.2324 10.3291 17.2751C10.2971 17.3071 10.2545 17.3231 10.2011 17.3231H8.37713C8.3238 17.3231 8.28113 17.3071 8.24913 17.2751C8.21713 17.2324 8.20647 17.1844 8.21713 17.1311L9.54513 6.31509C9.5558 6.26176 9.57713 6.21909 9.60913 6.18709C9.6518 6.14442 9.6998 6.12309 9.75313 6.12309H11.5771C11.6305 6.12309 11.6731 6.14442 11.7051 6.18709C11.7371 6.21909 11.7478 6.26176 11.7371 6.31509L11.2091 10.6191C11.2091 10.6724 11.2305 10.6991 11.2731 10.6991H14.7131C14.7665 10.6991 14.7931 10.6724 14.7931 10.6191L15.3211 6.31509ZM21.3111 17.4511C20.4471 17.4511 19.7325 17.2164 19.1671 16.7471C18.6018 16.2778 18.2551 15.6378 18.1271 14.8271C18.0845 14.6031 18.0631 14.3258 18.0631 13.9951C18.0631 13.7284 18.0791 13.4618 18.1111 13.1951C18.1965 12.5231 18.3405 11.9578 18.5431 11.4991C18.8845 10.7098 19.3911 10.0911 20.0631 9.64309C20.7351 9.19509 21.5031 8.97109 22.3671 8.97109C23.2205 8.97109 23.9191 9.19509 24.4631 9.64309C25.0071 10.0804 25.3538 10.6938 25.5031 11.4831C25.5671 11.7818 25.5991 12.1124 25.5991 12.4751C25.5991 12.7098 25.5831 12.9391 25.5511 13.1631C25.4871 13.6964 25.3485 14.2351 25.1351 14.7791C24.8045 15.6111 24.3031 16.2671 23.6311 16.7471C22.9591 17.2164 22.1858 17.4511 21.3111 17.4511ZM21.5511 15.5151C21.8925 15.5151 22.1911 15.4084 22.4471 15.1951C22.7138 14.9818 22.9271 14.6884 23.0871 14.3151C23.2151 13.9631 23.3005 13.5898 23.3431 13.1951C23.3751 12.9391 23.3911 12.6991 23.3911 12.4751C23.3911 11.9844 23.2791 11.6004 23.0551 11.3231C22.8311 11.0458 22.5111 10.9071 22.0951 10.9071C21.7538 10.9071 21.4498 11.0084 21.1831 11.2111C20.9271 11.4138 20.7245 11.6964 20.5751 12.0591C20.4578 12.3151 20.3725 12.6938 20.3191 13.1951C20.2871 13.4618 20.2711 13.7231 20.2711 13.9791C20.2711 14.4484 20.3831 14.8218 20.6071 15.0991C20.8311 15.3764 21.1458 15.5151 21.5511 15.5151ZM31.621 10.7151C31.6103 10.7684 31.5837 10.8164 31.541 10.8591C31.509 10.8911 31.4663 10.9071 31.413 10.9071H29.925C29.8823 10.9071 29.8503 10.9338 29.829 10.9871L29.413 14.3791C29.4023 14.4431 29.397 14.5284 29.397 14.6351C29.397 15.1578 29.653 15.4191 30.165 15.4191H30.677C30.7303 15.4191 30.773 15.4404 30.805 15.4831C30.8477 15.5151 30.8637 15.5578 30.853 15.6111L30.661 17.1311C30.6397 17.2591 30.5703 17.3284 30.453 17.3391C30.0263 17.3604 29.7117 17.3711 29.509 17.3711C28.7197 17.3711 28.1277 17.2538 27.733 17.0191C27.349 16.7738 27.157 16.3311 27.157 15.6911C27.157 15.6058 27.1677 15.4671 27.189 15.2751L27.717 10.9871C27.7383 10.9338 27.717 10.9071 27.653 10.9071H26.773C26.7197 10.9071 26.677 10.8911 26.645 10.8591C26.613 10.8164 26.6023 10.7684 26.613 10.7151L26.789 9.29109C26.789 9.23776 26.8103 9.19509 26.853 9.16309C26.8957 9.12042 26.9437 9.09909 26.997 9.09909H27.877C27.9303 9.09909 27.957 9.07242 27.957 9.01909L28.197 7.11509C28.2077 7.06176 28.229 7.01909 28.261 6.98709C28.3037 6.94442 28.3517 6.92309 28.405 6.92309H30.149C30.2023 6.92309 30.245 6.94442 30.277 6.98709C30.309 7.01909 30.3197 7.06176 30.309 7.11509L30.069 9.01909C30.069 9.07242 30.0957 9.09909 30.149 9.09909H31.637C31.6903 9.09909 31.733 9.12042 31.765 9.16309C31.797 9.19509 31.8077 9.23776 31.797 9.29109L31.621 10.7151Z" fill="#FAFAFA"/>
</svg>
