<svg width="14" height="14" viewBox="0 0 14 14" fill="none" xmlns="http://www.w3.org/2000/svg">
<path fill-rule="evenodd" clip-rule="evenodd" d="M7 2C9.76184 2 12 4.23815 12 7C12 9.76184 9.76184 12 7 12C4.23815 12 2 9.74938 2 6.99377C2 4.23815 4.23815 2 7 2ZM8.40271 3.20948C8.33413 3.1596 8.24685 3.1596 8.19074 3.20948L7.13712 3.97008C7.07478 4.01995 6.9875 4.01995 6.92515 3.97631L5.70944 3.20948C5.64087 3.17207 5.55358 3.17207 5.49747 3.21571L4.16954 4.20075C4.1072 4.25063 4.08226 4.3192 4.09473 4.38778L4.33787 5.6222C4.35034 5.69701 4.3254 5.77182 4.26306 5.81546L3.15333 6.601C3.08476 6.65088 3.05982 6.72569 3.07852 6.8005L3.62092 8.98255C3.63962 9.06983 3.72067 9.12594 3.80795 9.12594H5.21693C5.29797 9.12594 5.37279 9.18205 5.39772 9.25063L5.89024 10.697C5.91518 10.7781 5.98999 10.8217 6.07104 10.8217H7.985C8.07229 10.8217 8.1471 10.7594 8.1658 10.6783L8.5461 9.25686C8.56481 9.17581 8.63962 9.11347 8.7269 9.11347H10.2606C10.3478 9.11347 10.4289 9.05112 10.4476 8.96384L10.9401 6.7818C10.9526 6.70698 10.9276 6.63217 10.8653 6.58853L9.77428 5.80923C9.71194 5.77182 9.687 5.69078 9.69947 5.61596L9.94885 4.38778C9.96131 4.31297 9.93638 4.23192 9.8678 4.19452L8.40271 3.20948ZM8.60849 6.4576L7.02495 5.30423L5.44141 6.4576L6.04614 8.31545H8.00375L8.60849 6.4576Z" fill="#46494C"/>
</svg>
